<svg width="129" height="119" viewBox="0 0 129 119" fill="none" xmlns="http://www.w3.org/2000/svg">
<path d="M89.3029 102.875C102.103 102.925 112.503 92.5998 112.578 79.7998C112.578 70.2748 106.728 61.7248 97.8279 58.3248C91.4529 55.8498 87.528 47.9498 87.978 41.1998C87.8029 27.2748 76.3779 16.0998 62.4529 16.2498C51.8529 16.1998 42.3279 22.6998 38.5029 32.5998C36.8529 36.9748 33.3279 40.3748 28.9279 41.8748C24.5029 43.3998 19.6279 42.8498 15.6029 40.4248C13.6029 39.2248 11.3279 38.5998 9.00294 38.5998C3.82793 38.5498 -0.847061 41.7248 -2.72206 46.5498C-5.02206 52.6998 -10.8971 56.7748 -17.4471 56.7498H-20.2971C-33.0471 56.6248 -43.4721 66.8248 -43.5971 79.5748C-43.7221 92.3248 -33.5221 102.75 -20.7721 102.875C-20.6221 102.875 -20.4471 102.875 -20.2971 102.875H89.3029ZM89.3029 118.425H-20.2971C-41.6221 118.6 -59.0471 101.45 -59.2221 80.1248C-59.3971 58.7998 -42.2471 41.3748 -20.9221 41.1998C-20.7221 41.1998 -20.4971 41.1998 -20.2971 41.1998H-17.4471C-13.2971 30.2248 -2.74707 22.9748 9.00294 23.0498C14.2279 23.0498 19.3279 24.4498 23.8029 27.1498C32.0279 5.84981 55.9529 -4.75019 77.2529 3.47481C92.903 9.52481 103.353 24.4248 103.678 41.1998C103.678 42.0998 103.653 42.9998 103.578 43.8748C123.453 51.5248 133.353 73.8498 125.703 93.7248C119.928 108.75 105.403 118.6 89.3029 118.425Z" fill="url(#paint0_linear_851_1426)"/>
<defs>
<linearGradient id="paint0_linear_851_1426" x1="116.653" y1="35.5541" x2="64.8201" y2="111.082" gradientUnits="userSpaceOnUse">
<stop stop-color="#13BCFD"/>
<stop offset="1" stop-color="#9DE4FF"/>
</linearGradient>
</defs>
</svg>
