<svg width="100" height="100" viewBox="0 0 100 100" fill="none" xmlns="http://www.w3.org/2000/svg">
<g id="Group 41756">
<g id="Group 37714">
<path id="Rectangle 9176" d="M80.6452 0H19.3548C8.66546 0 0 8.66528 0 19.3544V80.6435C0 91.3327 8.66546 99.9979 19.3548 99.9979H80.6452C91.3345 99.9979 100 91.3327 100 80.6435V19.3544C100 8.66528 91.3345 0 80.6452 0Z" fill="#570014"/>
<g id="Group 10857">
<g id="Clip path group">
<mask id="mask0_1220_3356" style="mask-type:luminance" maskUnits="userSpaceOnUse" x="0" y="0" width="100" height="100">
<g id="clip-path-7">
<path id="Rectangle 8976" d="M80.6452 0.00195312H19.3548C8.66545 0.00195312 0 8.66723 0 19.3564V80.6455C0 91.3346 8.66545 99.9999 19.3548 99.9999H80.6452C91.3345 99.9999 100 91.3346 100 80.6455V19.3564C100 8.66723 91.3345 0.00195312 80.6452 0.00195312Z" fill="white"/>
</g>
</mask>
<g mask="url(#mask0_1220_3356)">
<g id="Mask Group 301">
<g id="Group 10875">
<path id="Ellipse 1648" d="M38.6356 19.6512C37.8504 19.4407 37.0205 19.4677 36.2506 19.7289C35.4808 19.9901 34.8058 20.4736 34.3108 21.1185C33.8158 21.7633 33.5232 22.5404 33.4699 23.3516C33.4166 24.1627 33.605 24.9715 34.0114 25.6755C34.4177 26.3796 35.0237 26.9473 35.7528 27.307C36.4818 27.6666 37.3011 27.802 38.1071 27.696C38.913 27.5901 39.6695 27.2475 40.2808 26.7116C40.892 26.1757 41.3306 25.4706 41.5412 24.6854C41.8221 23.6326 41.674 22.5113 41.1293 21.5676C40.5846 20.6238 39.6878 19.9346 38.6356 19.6512ZM39.9126 14.8883C41.6399 15.3514 43.191 16.3162 44.3698 17.6608C45.5487 19.0054 46.3023 20.6694 46.5354 22.4423C46.7686 24.2153 46.4707 26.0175 45.6796 27.6211C44.8884 29.2248 43.6395 30.5578 42.0907 31.4517C40.5419 32.3455 38.7629 32.76 36.9785 32.6428C35.1941 32.5256 33.4846 31.8818 32.066 30.7931C30.6475 29.7043 29.5837 28.2193 29.0092 26.5259C28.4346 24.8325 28.3752 23.0068 28.8383 21.2796C29.4592 18.9636 30.9749 16.989 33.0517 15.7904C35.1286 14.5918 37.5965 14.2673 39.9126 14.8883Z" fill="#F03460"/>
<path id="Ellipse 1648 - Outline" d="M40.1462 14.0273C42.3602 14.6211 44.3009 15.9622 45.6393 17.8232C46.9776 19.6842 47.6314 21.9508 47.4897 24.2387C47.348 26.5266 46.4196 28.6951 44.8619 30.3768C43.3041 32.0585 41.2128 33.1499 38.9424 33.466C36.3318 33.8286 33.684 33.1394 31.5816 31.5498C29.4792 29.9603 28.0943 27.6007 27.7317 24.9901C27.369 22.3795 28.0583 19.7318 29.6479 17.6295C31.2374 15.5271 33.5971 14.1423 36.2077 13.7796C37.5238 13.5963 38.8634 13.6806 40.1462 14.0273ZM35.4633 31.4928C37.0198 31.9096 38.6649 31.8556 40.1907 31.3377C41.7165 30.8198 43.0545 29.8612 44.0357 28.583C45.0168 27.3049 45.597 25.7646 45.7029 24.1568C45.8089 22.549 45.4358 20.9459 44.6309 19.5501C43.5356 17.7082 41.7589 16.3719 39.6855 15.8304C37.6121 15.289 35.4088 15.586 33.5528 16.6571C31.6968 17.7283 30.3374 19.4874 29.769 21.5535C29.2005 23.6197 29.4688 25.8265 30.5157 27.6963C31.0485 28.6248 31.76 29.4384 32.6093 30.09C33.4585 30.7417 34.4286 31.2185 35.4633 31.4928ZM38.8691 18.7902C39.8244 19.0463 40.6823 19.5799 41.3343 20.3236C41.9863 21.0673 42.4031 21.9876 42.532 22.9682C42.661 23.9487 42.4963 24.9455 42.0587 25.8324C41.6211 26.7194 40.9304 27.4566 40.0738 27.951C39.2172 28.4454 38.2332 28.6746 37.2463 28.6098C36.2594 28.545 35.3139 28.1889 34.5294 27.5867C33.7448 26.9846 33.1564 26.1633 32.8387 25.2267C32.5209 24.2901 32.488 23.2804 32.7441 22.3251C33.0876 21.0441 33.9258 19.9521 35.0745 19.2891C36.2232 18.6262 37.5881 18.4467 38.8691 18.7902ZM36.7387 26.7361C37.3529 26.9005 38.002 26.8791 38.6041 26.6747C39.2062 26.4703 39.7341 26.0921 40.1213 25.5878C40.5086 25.0835 40.7376 24.4757 40.7796 23.8413C40.8215 23.2069 40.6745 22.5742 40.3571 22.0233C40.0397 21.4724 39.5661 21.0279 38.9962 20.746C38.4263 20.4641 37.7856 20.3574 37.1551 20.4394C36.5246 20.5215 35.9325 20.7885 35.4537 21.2068C34.9749 21.6252 34.6308 22.176 34.465 22.7898C34.2466 23.6139 34.3634 24.491 34.7898 25.2293C35.2161 25.9675 35.9174 26.5071 36.7403 26.7299L36.7387 26.7361Z" fill="#F03460"/>
<path id="Path 15416" d="M15.8905 112.602L11.1275 111.325L33.084 29.4351L37.847 30.7121L15.8905 112.602Z" fill="#F03460"/>
<path id="Path 15416 - Outline" d="M16.522 113.697L10.0342 111.958L32.4531 28.3428L38.9409 30.0822L16.522 113.697ZM12.2214 110.695L15.2597 111.51L36.7537 31.3445L33.7155 30.5299L12.2214 110.695Z" fill="#F03460"/>
<path id="Ellipse 1651" d="M70.1935 45.5074C70.6979 46.3467 71.4398 47.0177 72.3254 47.4355C73.211 47.8533 74.2006 47.9991 75.1692 47.8546C76.1377 47.7101 77.0416 47.2817 77.7667 46.6236C78.4918 45.9654 79.0054 45.1071 79.2428 44.1571C79.4801 43.2071 79.4305 42.208 79.1002 41.2862C78.7698 40.3644 78.1736 39.5612 77.3868 38.9782C76.6001 38.3951 75.6581 38.0584 74.6801 38.0106C73.702 37.9628 72.7317 38.2061 71.8918 38.7096C70.7669 39.3865 69.9564 40.4819 69.638 41.7555C69.3196 43.0292 69.5192 44.3771 70.1932 45.5038M65.965 48.0444C64.9592 46.3679 64.473 44.4309 64.5681 42.4782C64.6631 40.5255 65.3351 38.6448 66.499 37.074C67.6629 35.5032 69.2665 34.3127 71.107 33.6533C72.9474 32.9938 74.9422 32.8949 76.8388 33.3691C78.7355 33.8433 80.449 34.8692 81.7626 36.3172C83.0762 37.7652 83.9309 39.5702 84.2187 41.5039C84.5064 43.4376 84.2143 45.4133 83.3792 47.181C82.5441 48.9487 81.2035 50.429 79.5271 51.4349C77.279 52.7837 74.5872 53.1842 72.0439 52.5484C69.5005 51.9125 67.3139 50.2924 65.965 48.0444Z" fill="#F03460"/>
<path id="Ellipse 1651 - Outline" d="M65.2 48.5052C63.9229 46.3724 63.4221 43.8638 63.7826 41.4041C64.143 38.9445 65.3425 36.685 67.1779 35.0083C69.0133 33.3316 71.3718 32.3408 73.854 32.2036C76.3362 32.0664 78.7895 32.7913 80.7985 34.2556C83.079 35.9521 84.5973 38.4807 85.0228 41.2911C85.4482 44.1014 84.7465 46.9661 83.0703 49.2617C81.3942 51.5572 78.8792 53.0979 76.0727 53.5484C73.2661 53.9989 70.3953 53.3228 68.0848 51.6672C66.9202 50.8181 65.9391 49.7426 65.2 48.5052ZM82.1526 38.334C81.2379 36.8087 79.8913 35.589 78.2832 34.8291C76.6751 34.0692 74.8778 33.8033 73.1186 34.065C71.3593 34.3267 69.7172 35.1042 68.4 36.2993C67.0828 37.4944 66.1496 39.0533 65.7184 40.7788C65.4321 41.9243 65.3741 43.115 65.5479 44.2829C65.7217 45.4508 66.1238 46.573 66.7313 47.5855C67.3388 48.598 68.1398 49.481 69.0885 50.1839C70.0373 50.8869 71.1152 51.3961 72.2607 51.6825C73.4062 51.9688 74.5969 52.0268 75.7649 51.853C76.9328 51.6792 78.0551 51.2771 79.0676 50.6696C80.0801 50.0621 80.963 49.2612 81.666 48.3125C82.3689 47.3637 82.8782 46.2859 83.1645 45.1404C83.4542 43.9953 83.514 42.8041 83.3403 41.6358C83.1666 40.4675 82.7629 39.3453 82.1526 38.334ZM69.4271 45.9691C68.8323 44.9777 68.5448 43.8323 68.6009 42.6775C68.6571 41.5228 69.0544 40.4106 69.7426 39.4817C70.4308 38.5527 71.379 37.8487 72.4674 37.4586C73.5557 37.0686 74.7353 37.0099 75.8569 37.2902C76.9785 37.5704 77.9919 38.177 78.7688 39.0331C79.5458 39.8892 80.0514 40.9565 80.2218 42.1C80.3922 43.2434 80.2197 44.4118 79.7261 45.4572C79.2325 46.5027 78.4401 47.3783 77.4488 47.9734C76.119 48.7693 74.5276 49.0052 73.024 48.6293C71.5204 48.2533 70.226 47.2972 69.4271 45.9691ZM77.9214 40.8727C77.5082 40.184 76.9001 39.6334 76.1739 39.2904C75.4478 38.9474 74.6362 38.8275 73.8419 38.9457C73.0475 39.064 72.3061 39.4152 71.7114 39.9549C71.1167 40.4945 70.6954 41.1984 70.5007 41.9776C70.3061 42.7567 70.3469 43.5761 70.618 44.332C70.8891 45.0879 71.3783 45.7465 72.0237 46.2244C72.6691 46.7023 73.4417 46.9781 74.2439 47.0168C75.046 47.0556 75.8416 46.8556 76.5301 46.4422C77.4534 45.8877 78.1189 44.9895 78.3806 43.9448C78.6422 42.9001 78.4785 41.7943 77.9255 40.8702L77.9214 40.8727Z" fill="#F03460"/>
<path id="Path 15417" d="M65.5655 45.4359L68.1034 49.6657L-4.59961 93.2861L-7.13667 89.0577L65.5655 45.4359Z" fill="#F03460"/>
<path id="Path 15417 - Outline" d="M65.8713 44.2117L69.3279 49.9726L-4.90625 94.5117L-8.36204 88.7521L65.8713 44.2117ZM66.878 49.3601L65.2596 46.6629L-5.9121 89.3646L-4.29376 92.0618L66.878 49.3601Z" fill="#F03460"/>
<path id="Ellipse 1653" d="M63.5378 84.8422C63.2848 85.7882 63.318 86.7879 63.6331 87.7151C63.9482 88.6422 64.5311 89.4551 65.3081 90.051C66.0852 90.647 67.0215 90.9991 67.9986 91.0631C68.9758 91.127 69.9499 90.8998 70.798 90.4101C71.646 89.9205 72.3299 89.1905 72.7631 88.3123C73.1963 87.4341 73.3594 86.4472 73.2319 85.4763C73.1043 84.5054 72.6917 83.5942 72.0463 82.8577C71.4009 82.1213 70.5516 81.5927 69.6059 81.3388C68.3373 81.0004 66.9864 81.179 65.8493 81.8352C64.7122 82.4915 63.8818 83.5719 63.5402 84.8395M58.7748 83.5652C59.2811 81.6768 60.336 79.981 61.8061 78.6922C63.2762 77.4034 65.0954 76.5795 67.0338 76.3246C68.9722 76.0697 70.9427 76.3953 72.696 77.2603C74.4493 78.1253 75.9068 79.4907 76.8841 81.184C77.8613 82.8772 78.3145 84.8223 78.1864 86.7731C78.0582 88.7239 77.3544 90.5929 76.164 92.1438C74.9736 93.6946 73.35 94.8577 71.4986 95.4858C69.6472 96.1139 67.6511 96.179 65.7627 95.6727C63.2304 94.9938 61.0716 93.3367 59.7611 91.0661C58.4506 88.7955 58.0958 86.0974 58.7748 83.5652Z" fill="#F03460"/>
<path id="Ellipse 1653 - Outline" d="M57.9136 83.336C58.5595 80.9355 60.0153 78.8319 62.0343 77.3816C64.0534 75.9313 66.5117 75.2233 68.9929 75.3777C71.4741 75.532 73.8257 76.5391 75.6495 78.2284C77.4733 79.9178 78.6571 82.1855 79.0006 84.6476C79.3658 87.4665 78.6028 90.3154 76.8778 92.5746C75.1528 94.8337 72.6054 96.3202 69.7898 96.7104C66.9743 97.1007 64.1185 96.3632 61.844 94.6585C59.5696 92.9537 58.0604 90.4197 57.645 87.6078C57.4462 86.1803 57.5376 84.7274 57.9136 83.336ZM77.0092 88.4558C77.4702 86.738 77.4113 84.9221 76.8401 83.2377C76.2688 81.5534 75.2109 80.0763 73.8 78.9933C72.3891 77.9103 70.6888 77.2701 68.914 77.1536C67.1392 77.0371 65.3697 77.4496 63.8294 78.3389C62.8067 78.9291 61.9103 79.715 61.1913 80.6516C60.4724 81.5883 59.9449 82.6574 59.6392 83.7978C59.3334 84.9383 59.2552 86.1279 59.4092 87.2986C59.5631 88.4692 59.9461 89.5982 60.5364 90.6208C61.1266 91.6435 61.9125 92.5399 62.8492 93.2588C63.7858 93.9778 64.855 94.5052 65.9955 94.811C67.136 95.1168 68.3256 95.1949 69.4963 95.041C70.667 94.8871 71.7959 94.504 72.8186 93.9138C73.8433 93.3263 74.7412 92.5414 75.4606 91.6045C76.1799 90.6676 76.7063 89.5974 77.0092 88.4558ZM62.675 84.6126C62.9744 83.496 63.5982 82.4931 64.4675 81.731C65.3369 80.9688 66.4127 80.4815 67.5589 80.3307C68.7052 80.1799 69.8704 80.3724 70.9073 80.8838C71.9442 81.3951 72.8061 82.2025 73.3842 83.2037C73.9622 84.205 74.2304 85.3551 74.1548 86.5087C74.0792 87.6624 73.6632 88.7677 72.9595 89.6849C72.2557 90.6022 71.2958 91.2901 70.201 91.6618C69.1063 92.0335 67.9259 92.0723 66.8091 91.7732C65.3126 91.3702 64.037 90.39 63.2622 89.0477C62.4875 87.7053 62.2753 86.1101 62.675 84.6126ZM72.2431 87.1779C72.4511 86.4023 72.4244 85.5823 72.1663 84.8218C71.9082 84.0614 71.4304 83.3945 70.7933 82.9056C70.1562 82.4166 69.3884 82.1276 68.587 82.0751C67.7857 82.0226 66.9867 82.2089 66.2912 82.6105C65.5957 83.012 65.035 83.6108 64.6798 84.3311C64.3247 85.0514 64.1912 85.8608 64.2961 86.657C64.4011 87.4532 64.7398 88.2004 65.2694 88.8041C65.799 89.4078 66.4958 89.8408 67.2716 90.0485C68.3119 90.327 69.4203 90.1812 70.3533 89.6433C71.2863 89.1053 71.9676 88.2191 72.2478 87.1792L72.2431 87.1779Z" fill="#F03460"/>
<path id="Path 15418" d="M60.3873 81.429L59.1102 86.1919L-22.7832 64.2354L-21.5062 59.4725L60.3873 81.429Z" fill="#F03460"/>
<path id="Path 15418 - Outline" d="M61.4807 80.7975L59.7413 87.2851L-23.877 64.8662L-22.1375 58.3786L61.4807 80.7975ZM58.4789 85.098L59.2935 82.0598L-20.8751 60.5658L-21.6897 63.6039L58.4789 85.098Z" fill="#F03460"/>
<path id="Path 15419" d="M42.9795 41.9003L12.4258 33.7085L-3.7742 94.129L-1.54558 97.9881L37.9857 108.587L44.6141 104.763L56.1809 61.6223L42.9795 41.9003Z" fill="#570014"/>
<g id="Group 7290">
<path id="Path 3270" fill-rule="evenodd" clip-rule="evenodd" d="M11.2907 81.4084C11.4344 80.8496 11.7939 80.3705 12.2905 80.0766C12.787 79.7826 13.3799 79.6977 13.939 79.8406L22.2497 82.0688C22.7932 82.237 23.2504 82.6093 23.5254 83.1074C23.8003 83.6055 23.8715 84.1908 23.7242 84.7403C23.5769 85.2899 23.2224 85.761 22.7351 86.0547C22.2479 86.3485 21.6658 86.4421 21.111 86.3159L12.8002 84.0877C12.2447 83.9317 11.7738 83.5616 11.4909 83.0587C11.208 82.5557 11.1363 81.9611 11.2916 81.4053M13.5695 72.9094C13.7131 72.3505 14.0727 71.8715 14.5692 71.5775C15.0658 71.2835 15.6587 71.1987 16.2178 71.3415L36.9977 76.9128C37.5412 77.0811 37.9984 77.4534 38.2733 77.9515C38.5482 78.4496 38.6195 79.0349 38.4722 79.5844C38.3248 80.1339 37.9703 80.605 37.4831 80.8988C36.9958 81.1926 36.4137 81.2862 35.859 81.16L15.079 75.5887C14.5235 75.4327 14.0525 75.0626 13.7697 74.5596C13.4868 74.0567 13.4151 73.462 13.5704 72.9063M15.8483 64.4103C15.9919 63.8515 16.3515 63.3724 16.848 63.0785C17.3445 62.7845 17.9375 62.6996 18.4965 62.8424L39.2765 68.4138C39.82 68.5821 40.2772 68.9543 40.5521 69.4524C40.827 69.9506 40.8983 70.5358 40.7509 71.0854C40.6036 71.6349 40.2491 72.106 39.7619 72.3998C39.2746 72.6936 38.6925 72.7872 38.1377 72.661L17.3578 67.0896C16.8022 66.9336 16.3313 66.5635 16.0484 66.0606C15.7656 65.5576 15.6939 64.963 15.8491 64.4072" fill="#F03460"/>
<path id="Path 3270 - Outline" d="M21.0428 86.5983L12.7227 84.3676C12.0982 84.183 11.5704 83.7617 11.2521 83.1936C10.9337 82.6254 10.8499 81.9554 11.0186 81.3263C11.1872 80.6973 11.595 80.159 12.1549 79.8263C12.7148 79.4937 13.3825 79.3929 14.0156 79.5455L22.3419 81.7779C22.9665 81.9625 23.4942 82.3838 23.8126 82.9519C24.131 83.5201 24.2147 84.1901 24.0461 84.8191C23.8774 85.4482 23.4697 85.9864 22.9098 86.3191C22.3499 86.6518 21.6822 86.7526 21.049 86.6L21.0428 86.5983ZM12.881 83.8021L21.1855 86.0287C21.667 86.1428 22.174 86.0649 22.5989 85.8113C23.0238 85.5578 23.3331 85.1486 23.4613 84.6707C23.5894 84.1928 23.5263 83.6837 23.2852 83.2516C23.0441 82.8195 22.6441 82.4984 22.1701 82.3564L13.8656 80.1299C13.3838 80.0073 12.873 80.0805 12.445 80.3334C12.0169 80.5864 11.7065 80.9985 11.5814 81.4797C11.446 81.96 11.5068 82.4745 11.7505 82.91C11.9942 83.3454 12.4008 83.6664 12.881 83.8021ZM15.0056 75.878C14.3811 75.6934 13.8533 75.2721 13.535 74.704C13.2166 74.1358 13.1328 73.4658 13.3015 72.8367C13.4702 72.2077 13.8779 71.6694 14.4378 71.3367C14.9977 71.0041 15.6654 70.9033 16.2985 71.0559L37.0863 76.6293C37.7045 76.8192 38.225 77.2414 38.5381 77.8073C38.8513 78.3731 38.9327 79.0384 38.7652 79.663C38.5978 80.2877 38.1944 80.823 37.6402 81.1563C37.086 81.4895 36.4241 81.5948 35.7938 81.4499L15.0045 75.876L15.0056 75.878ZM16.1444 71.6308C15.6623 71.5082 15.1512 71.5815 14.723 71.8348C14.2949 72.0881 13.9845 72.5007 13.8598 72.9822C13.7248 73.4624 13.7859 73.9765 14.0296 74.4116C14.2734 74.8467 14.6798 75.1674 15.1598 75.3031L35.9304 80.8719C36.4118 80.9861 36.9188 80.9081 37.3437 80.6546C37.7686 80.401 38.078 79.9919 38.2061 79.514C38.3343 79.036 38.2711 78.527 38.03 78.0949C37.789 77.6628 37.389 77.3417 36.915 77.1996L16.1444 71.6308ZM38.0675 72.9511L17.2782 67.3773C16.6481 67.1991 16.114 66.7789 15.7927 66.2084C15.4713 65.6379 15.3886 64.9634 15.5628 64.3322C15.7281 63.6989 16.1372 63.1566 16.7007 62.8238C17.2643 62.4909 17.9366 62.3943 18.5711 62.5552L39.365 68.1303C39.9833 68.3201 40.5038 68.7424 40.8169 69.3082C41.1301 69.8741 41.2115 70.5393 41.044 71.164C40.8765 71.7886 40.4732 72.3239 39.919 72.6572C39.3648 72.9905 38.7028 73.0957 38.0725 72.9508L38.0675 72.9511ZM17.4386 66.804L38.2091 72.3729C38.6906 72.487 39.1976 72.4091 39.6225 72.1555C40.0474 71.902 40.3568 71.4928 40.4849 71.0149C40.6131 70.537 40.5499 70.0279 40.3088 69.5958C40.0677 69.1637 39.6677 68.8426 39.1937 68.7006L18.4232 63.1318C17.9408 63.0095 17.4296 63.0832 17.0014 63.3367C16.5732 63.5902 16.2629 64.003 16.1381 64.4848C16.0037 64.9647 16.065 65.4785 16.3088 65.9132C16.5526 66.348 16.9589 66.6684 17.4386 66.804Z" fill="#F03460"/>
<g id="Group 5418">
<path id="Union 54" d="M19.2472 32.3184L39.9723 38.8603L41.559 42.8713L18.1039 36.5827C17.5435 36.4322 16.959 36.3937 16.3837 36.4693C15.8085 36.5449 15.2538 36.7331 14.7513 37.0232C14.2489 37.3133 13.8085 37.6996 13.4554 38.16C13.1024 38.6204 12.8435 39.1459 12.6937 39.7064L-1.02905 90.8877C-1.17927 91.4479 -1.21761 92.0323 -1.14188 92.6074C-1.06615 93.1825 -0.877837 93.737 -0.587698 94.2393C-0.29756 94.7416 0.0887142 95.1817 0.54905 95.5347C1.00938 95.8876 1.53475 96.1464 2.09514 96.2962L36.2168 105.445C37.3478 105.748 38.553 105.589 39.5671 105.004C40.5813 104.419 41.3214 103.455 41.6246 102.324L52.4888 61.8039L54.3719 63.563L45.8922 103.468C45.5915 104.588 45.0729 105.639 44.366 106.559C43.6592 107.479 42.7779 108.251 41.7726 108.831C40.7674 109.41 39.6577 109.786 38.5072 109.936C37.3566 110.087 36.1877 110.009 35.0672 109.707L0.950229 100.56C-1.31191 99.9536 -3.24051 98.4734 -4.4114 96.4451C-5.58229 94.4168 -5.89958 92.0065 -5.29349 89.7443L8.42926 38.563C8.72944 37.4426 9.24738 36.3924 9.95352 35.4721C10.6597 34.5519 11.5402 33.7799 12.5447 33.2C13.5493 32.6201 14.6582 32.2438 15.8083 32.0925C16.9583 31.9412 18.1269 32.018 19.2472 32.3184Z" fill="#F03460"/>
<path id="Union 54 - Outline" d="M19.4776 31.457L19.515 31.467L40.6457 38.1345L43.0417 44.1911L17.8695 37.4421C17.4223 37.322 16.9557 37.2913 16.4965 37.3517C16.0374 37.4121 15.5946 37.5625 15.1937 37.7943C14.7928 38.026 14.4415 38.3346 14.1599 38.7023C13.8784 39.07 13.6722 39.4897 13.5531 39.9372L-0.169647 91.1185C-0.410166 92.0205 -0.283181 92.9811 0.183465 93.7896C0.650108 94.5981 1.41833 95.1886 2.31969 95.4316L36.4414 104.58C37.3434 104.821 38.304 104.694 39.1125 104.227C39.9211 103.76 40.5116 102.992 40.7546 102.091L52.0039 60.1346L55.3426 63.2542L46.7456 103.702C46.4159 104.936 45.846 106.093 45.0686 107.107C44.2912 108.12 43.3215 108.971 42.2151 109.609C41.1087 110.248 39.8873 110.662 38.6206 110.828C37.354 110.994 36.0671 110.909 34.8335 110.577L0.716486 101.43C-0.517941 101.1 -1.67516 100.529 -2.68895 99.7516C-3.70274 98.9738 -4.55319 98.0037 -5.19165 96.8968C-5.8301 95.79 -6.24402 94.5681 -6.40972 93.3011C-6.57542 92.0342 -6.48964 90.7469 -6.1573 89.5131L7.56544 38.3318C7.89523 37.0977 8.46513 35.9407 9.24253 34.9271C10.0199 33.9135 10.9896 33.063 12.096 32.4245C13.2024 31.786 14.4238 31.3718 15.6904 31.2058C16.9571 31.0398 18.244 31.1252 19.4776 31.457ZM39.295 39.5843L18.9964 33.1767C16.9645 32.6372 14.8015 32.9257 12.9819 33.9788C11.1623 35.0319 9.83466 36.7637 9.29022 38.7943L-4.43252 89.9756C-4.97735 92.0093 -4.69208 94.1761 -3.63945 95.9995C-2.58682 97.8229 -0.85303 99.1535 1.1806 99.6987L35.3023 108.847C37.3324 109.391 39.4955 109.109 41.3174 108.061C43.1393 107.013 44.4713 105.285 45.0214 103.256L53.3839 63.8697L52.9564 63.4711L42.4774 102.554C42.1114 103.913 41.2214 105.071 40.0028 105.774C38.7842 106.477 37.3364 106.669 35.977 106.306L1.85839 97.1583C0.499832 96.7923 -0.6581 95.9024 -1.36141 94.6838C-2.06473 93.4652 -2.25601 92.0175 -1.89329 90.6581L11.8299 39.4752C12.01 38.8017 12.3211 38.1703 12.7454 37.617C13.1696 37.0638 13.6988 36.5995 14.3025 36.2508C14.9063 35.9022 15.5728 35.6759 16.264 35.5849C16.9553 35.4939 17.6577 35.54 18.3311 35.7205L40.0739 41.55L39.295 39.5843Z" fill="#F03460"/>
<path id="Union 54 - Outline_2" d="M34.9441 110.157L0.827057 101.01C-1.55217 100.369 -3.57987 98.8098 -4.81126 96.6754C-6.04266 94.541 -6.37721 92.0053 -5.74154 89.6246L7.9812 38.4433C8.62178 36.064 10.18 34.036 12.314 32.8042C14.448 31.5723 16.9835 31.2373 19.3642 31.8725L42.0332 37.7299L57.0191 63.4348L46.326 103.584C45.6854 105.964 44.1275 107.992 41.9938 109.224C39.8602 110.456 37.3249 110.792 34.9441 110.157ZM19.1245 32.7668C16.9807 32.1947 14.6976 32.4962 12.776 33.6053C10.8543 34.7143 9.45103 36.5403 8.87398 38.6826L-4.84877 89.864C-5.42136 92.0078 -5.12009 94.2912 -4.01105 96.2132C-2.90202 98.1351 -1.07582 99.5387 1.06684 100.116L35.1885 109.264C37.3324 109.834 39.6146 109.531 41.5357 108.422C43.4568 107.313 44.8605 105.488 45.4394 103.347L54.9977 63.7796L53.0833 61.7633L42.0635 102.44C41.7273 103.689 40.9094 104.753 39.7893 105.4C38.6691 106.046 37.3382 106.222 36.0887 105.888L1.97166 96.7411C0.722403 96.4053 -0.342544 95.5874 -0.989365 94.4672C-1.63618 93.3469 -1.81201 92.0157 -1.47825 90.766L12.2441 39.5862C12.4084 38.9663 12.694 38.3852 13.0844 37.8764C13.4748 37.3676 13.9623 36.9413 14.5185 36.6221C15.6388 35.9791 16.9677 35.8042 18.2162 36.1356L38.7852 41.0174L43.9703 44.1027L19.1245 32.7668ZM17.9811 37.0311C16.9681 36.7611 15.8893 36.9023 14.9799 37.4239C14.529 37.6827 14.1338 38.0283 13.8174 38.4408C13.501 38.8534 13.2695 39.3245 13.1364 39.8271L-0.586309 91.0084C-0.856784 92.0205 -0.714689 93.0986 -0.191204 94.006C0.33228 94.9134 1.19439 95.5761 2.20594 95.8486L36.3276 104.997C37.34 105.267 38.4181 105.125 39.3256 104.601C40.2331 104.077 40.8958 103.215 41.1683 102.203L52.4452 60.7672L44.943 58.6255C41.0946 57.5937 38.6264 54.7776 39.6198 51.0726L41.7069 43.394L17.9811 37.0311ZM43.2945 41.5217L40.5032 51.3095C40.3058 52.0813 40.2645 52.8848 40.3815 53.6728C40.4986 54.4608 40.7717 55.2175 41.185 55.8986C41.5982 56.5797 42.1432 57.1715 42.788 57.6394C43.4328 58.1072 44.1646 58.4417 44.9403 58.6231L55.2538 61.1178L43.2945 41.5217Z" fill="#F03460"/>
<path id="Union 54 - Outline - Outline" d="M34.7151 111.019L0.598048 101.872C-2.00984 101.169 -4.23253 99.4611 -5.58244 97.1217C-6.93235 94.7824 -7.29927 92.0032 -6.60271 89.3937L7.12003 38.2124C7.82177 35.605 9.52896 33.3824 11.8672 32.0319C14.2054 30.6815 16.9838 30.3135 19.593 31.0086L42.618 36.9581L57.9808 63.3068L47.1927 103.817C46.4904 106.425 44.7823 108.648 42.4431 109.998C40.104 111.348 37.3247 111.716 34.7151 111.019ZM18.8253 33.6101C16.9174 33.1205 14.8933 33.4028 13.1921 34.3957C11.4909 35.3886 10.2496 37.0122 9.73759 38.9142L-3.98515 90.0955C-4.49685 92.0105 -4.22795 94.0504 -3.23744 95.7674C-2.24692 97.4845 -0.61571 98.7385 1.29829 99.2543L35.42 108.403C37.3336 108.913 39.3714 108.645 41.0874 107.656C42.8033 106.667 44.0575 105.038 44.5753 103.127L54.0205 64.0437L53.5346 63.5326L42.9267 102.673C42.5286 104.15 41.561 105.408 40.2361 106.173C38.9113 106.937 37.3374 107.145 35.8597 106.75L1.74266 97.6032C0.265241 97.2058 -0.994242 96.2386 -1.75956 94.9139C-2.52488 93.5892 -2.73356 92.015 -2.33983 90.5366L11.3829 39.3553C11.5771 38.6218 11.9149 37.9342 12.3768 37.3322C12.8386 36.7301 13.4153 36.2257 14.0735 35.8482C15.3938 35.0912 16.9585 34.8829 18.431 35.2679L26.822 37.2588L18.8253 33.6101ZM17.7521 37.8932C16.968 37.6845 16.1332 37.7938 15.4293 38.1973C15.08 38.3975 14.7739 38.6649 14.5286 38.9841C14.2833 39.3033 14.1038 39.668 14.0005 40.0571L0.277719 91.2384C0.0672167 92.0235 0.177226 92.8601 0.583546 93.5641C0.989867 94.2681 1.65922 94.7819 2.44434 94.9924L36.566 104.141C37.3512 104.351 38.1878 104.241 38.8918 103.835C39.5958 103.429 40.1096 102.759 40.3201 101.974L51.3688 61.3888L44.7213 59.4913C42.7698 59.0404 41.0252 57.9495 39.7654 56.3923C39.1748 55.611 38.7765 54.7014 38.6029 53.7375C38.4293 52.7735 38.4853 51.7821 38.7664 50.8438L40.6186 44.029L17.7521 37.8932ZM54.3698 61.8193L55.9813 63.5139L55.031 67.4442L56.0716 63.5632L55.1667 62.0113L54.3698 61.8193ZM41.364 51.5453C41.1901 52.1855 41.1487 52.8545 41.2422 53.5113C41.3358 54.1681 41.5623 54.7989 41.908 55.3652C42.6433 56.5521 43.8092 57.4086 45.1617 57.7556L53.3705 59.7411L43.9321 44.2778L43.595 44.9122L43.2976 44.7757L41.364 51.5453ZM39.1239 40.1797L42.2248 42.0248L42.6451 40.5509L41.4465 38.4994L23.9139 33.9657L35.7883 39.3839L39.1239 40.1797Z" fill="#F03460"/>
</g>
<g id="Group" filter="url(#filter0_d_1220_3356)">
<path id="Path 17687" d="M50.7402 44.7632L66.4142 71.6925L51.0625 67.5765C49.4738 67.1569 48.1169 66.1234 47.2901 64.7034C46.4634 63.2835 46.2344 61.5933 46.6537 60.0045L50.7402 44.7632Z" fill="#FC567C"/>
</g>
</g>
</g>
</g>
</g>
</g>
</g>
</g>
</g>
<defs>
<filter id="filter0_d_1220_3356" x="31.3838" y="29.6978" width="50.0956" height="57.06" filterUnits="userSpaceOnUse" color-interpolation-filters="sRGB">
<feFlood flood-opacity="0" result="BackgroundImageFix"/>
<feColorMatrix in="SourceAlpha" type="matrix" values="0 0 0 0 0 0 0 0 0 0 0 0 0 0 0 0 0 0 127 0" result="hardAlpha"/>
<feOffset/>
<feGaussianBlur stdDeviation="7.5327"/>
<feColorMatrix type="matrix" values="0 0 0 0 0 0 0 0 0 0 0 0 0 0 0 0 0 0 0.349 0"/>
<feBlend mode="normal" in2="BackgroundImageFix" result="effect1_dropShadow_1220_3356"/>
<feBlend mode="normal" in="SourceGraphic" in2="effect1_dropShadow_1220_3356" result="shape"/>
</filter>
</defs>
</svg>
