<svg width="100" height="100" viewBox="0 0 100 100" fill="none" xmlns="http://www.w3.org/2000/svg">
<g id="Group 37705">
<path id="Rectangle 9176" d="M77.2727 0.00292969H22.7273C10.1753 0.00292969 0 10.178 0 22.7296V77.2736C0 89.8252 10.1753 100 22.7273 100H77.2727C89.8247 100 100 89.8252 100 77.2736V22.7296C100 10.178 89.8247 0.00292969 77.2727 0.00292969Z" fill="#370762"/>
<g id="Group 10857">
<g id="Clip path group">
<mask id="mask0_888_1573" style="mask-type:luminance" maskUnits="userSpaceOnUse" x="0" y="0" width="100" height="100">
<g id="clip-path-11">
<path id="Rectangle 8976" d="M77.2727 0H22.7273C10.1753 0 0 10.1751 0 22.7267V77.2707C0 89.8223 10.1753 99.9973 22.7273 99.9973H77.2727C89.8247 99.9973 100 89.8223 100 77.2707V22.7267C100 10.1751 89.8247 0 77.2727 0Z" fill="white"/>
</g>
</mask>
<g mask="url(#mask0_888_1573)">
<g id="Mask Group 301">
<g id="Group 10871">
<g id="Group 7637">
<path id="Subtraction 4" d="M-8.49886 94.9822C-9.25278 94.9833 -9.9993 94.8334 -10.6943 94.5413C-11.4114 94.2423 -12.0579 93.7964 -12.592 93.2322C-13.3802 92.4049 -13.8877 91.3503 -14.0423 90.2181C-14.1969 89.086 -13.9909 87.9339 -13.4534 86.9255L68.7807 11.1071C69.7553 10.3741 70.9429 9.9798 72.1625 9.98442H72.3557C73.834 10.0279 75.2347 10.6555 76.2511 11.7298C76.7515 12.254 77.142 12.873 77.3996 13.5504C77.6572 14.2277 77.7767 14.9498 77.7511 15.674C77.7255 16.3982 77.5552 17.11 77.2504 17.7675C76.9456 18.425 76.5123 19.0148 75.9761 19.5023L66.1625 28.5112C73.0008 33.6757 79.3591 39.4467 85.1602 45.7539L85.183 45.7766L85.4102 46.0039L85.433 46.0266C86.7193 47.3561 87.933 48.6129 89.1148 49.797C89.6292 50.3077 90.0362 50.9162 90.3119 51.5866C90.5877 52.257 90.7265 52.9757 90.7204 53.7005C90.7143 54.4254 90.5632 55.1417 90.2762 55.8073C89.9891 56.4729 89.5718 57.0744 89.0489 57.5763C87.9837 58.6005 86.5601 59.1672 85.0825 59.1554C83.6049 59.1435 82.1906 58.5539 81.142 57.5127C79.8898 56.2582 78.6034 54.9241 77.2398 53.5151L77.217 53.4923L77.0761 53.3469L77.058 53.3287C71.2667 46.9509 64.836 41.1845 57.867 36.1201L43.9466 48.8925C45.1004 51.4342 45.7116 54.1885 45.7414 56.9797C45.7711 59.7709 45.2187 62.5377 44.1193 65.1034C43.0781 67.524 41.5742 69.7181 39.692 71.5623C37.804 73.4233 35.5746 74.9026 33.1261 75.919C30.2869 77.099 27.2227 77.6394 24.1511 77.502C21.0795 77.3645 18.0759 76.5525 15.3534 75.1236L-4.68977 93.5117C-5.73024 94.462 -7.08973 94.9868 -8.49886 94.9822ZM4.61023 59.9104C4.48735 59.0065 4.42585 58.0953 4.42614 57.1832C4.42106 54.4637 4.97333 51.772 6.04886 49.2743C7.08953 46.8527 8.59348 44.6578 10.4761 42.8131C14.3738 38.9879 19.6218 36.8527 25.083 36.8701C26.4911 36.8697 27.8958 37.0098 29.2761 37.2882L4.61023 59.9172V59.9104ZM-35.9193 59.1649C-37.2146 59.1657 -38.4707 58.7202 -39.4761 57.9036C-40.0417 57.4497 -40.5107 56.8873 -40.8555 56.2495C-41.2004 55.6116 -41.4142 54.9112 -41.4843 54.1895C-41.5544 53.4678 -41.4794 52.7393 -41.2637 52.047C-41.048 51.3547 -40.696 50.7126 -40.2284 50.1583C-39.008 48.7061 -9.9625 14.5775 24.0693 14.5775H24.208C28.6536 14.5831 33.0892 15 37.458 15.8229C41.4183 16.5779 45.3033 17.6845 49.067 19.1296L39.8057 27.6271C34.7091 26.2615 29.4548 25.5738 24.1784 25.5817H24.067C16.8604 25.7261 9.76584 27.3928 3.24887 30.4725C-3.05367 33.3765 -9.00175 36.9948 -14.4784 41.2563C-20.6872 45.9962 -26.4243 51.3237 -31.6102 57.165C-32.1376 57.7943 -32.797 58.2997 -33.5418 58.6454C-34.2865 58.991 -35.0983 59.1684 -35.9193 59.1649Z" fill="url(#paint0_linear_888_1573)"/>
</g>
</g>
</g>
</g>
</g>
</g>
</g>
<defs>
<linearGradient id="paint0_linear_888_1573" x1="65.8613" y1="14.9143" x2="34.1028" y2="108.562" gradientUnits="userSpaceOnUse">
<stop stop-color="#A84AFF"/>
<stop offset="1" stop-color="#8D14FF"/>
</linearGradient>
</defs>
</svg>
