<svg width="100" height="100" viewBox="0 0 100 100" fill="none" xmlns="http://www.w3.org/2000/svg">
<g id="Group 41755">
<path id="Rectangle 9176" d="M77.7778 0H22.2222C9.94923 0 0 10.0892 0 22.5348V77.4635C0 89.9091 9.94923 99.9983 22.2222 99.9983H77.7778C90.0508 99.9983 100 89.9091 100 77.4635V22.5348C100 10.0892 90.0508 0 77.7778 0Z" fill="#005839"/>
<g id="Group 10857">
<g id="Group 37712">
<g id="Group 18258">
<g id="Clip path group">
<mask id="mask0_1220_3341" style="mask-type:luminance" maskUnits="userSpaceOnUse" x="0" y="0" width="100" height="100">
<g id="clip-path-9">
<path id="Rectangle 11210" d="M77.7778 0.00146484H22.2222C9.94923 0.00146484 0 10.0907 0 22.5363V77.465C0 89.9106 9.94923 99.9998 22.2222 99.9998H77.7778C90.0508 99.9998 100 89.9106 100 77.465V22.5363C100 10.0907 90.0508 0.00146484 77.7778 0.00146484Z" fill="white"/>
</g>
</mask>
<g mask="url(#mask0_1220_3341)">
<g id="Mask Group 326">
<g id="Group 18258_2">
<path id="Path 19694" opacity="0.369" d="M26.9891 21.029C17.1955 21.0293 7.62196 23.9744 -0.520998 29.4921C-8.66396 35.0098 -15.0106 42.8521 -18.7584 52.0275C-22.5062 61.2029 -23.4868 71.2992 -21.5763 81.0397C-19.6657 90.7802 -14.9498 99.7275 -8.02483 106.75C1.28104 116.071 13.8458 121.28 26.9259 121.239C40.006 121.199 52.5389 115.911 61.788 106.532C71.0371 97.1529 76.251 84.4437 76.2913 71.1796C76.3315 57.9155 71.1949 45.174 62.003 35.7372C57.4156 31.0596 51.959 27.3512 45.9488 24.8265C39.9387 22.3018 33.4944 21.0111 26.9891 21.029ZM26.9891 11.4644C38.6483 11.4644 50.0456 14.9704 59.7399 21.539C69.4342 28.1076 76.99 37.4439 81.4518 48.3671C85.9136 59.2903 87.081 71.31 84.8064 82.906C82.5318 94.5021 76.9173 105.154 68.673 113.514C60.4287 121.874 49.9248 127.568 38.4896 129.874C27.0545 132.181 15.2016 130.997 4.42987 126.473C-6.34183 121.948 -15.5486 114.286 -22.0261 104.455C-28.5036 94.6246 -31.9609 83.0669 -31.9609 71.2436C-31.9609 55.3892 -25.7502 40.1841 -14.6949 28.9733C-3.63961 17.7625 11.3546 11.4644 26.9891 11.4644Z" fill="#07D83F"/>
<path id="Union 556" d="M7.70284 105.693C4.78949 104.007 2.10457 101.944 -0.284432 99.5561C-2.77693 97.0584 -4.93171 94.2364 -6.69237 91.1641C-8.94543 87.2425 -10.503 82.9508 -11.2943 78.4837C-11.7489 75.9332 -11.9551 73.3435 -11.9099 70.7521C-11.7988 64.4589 -10.2247 58.2811 -7.31557 52.7211C-5.21532 48.7121 -2.43973 45.1066 0.885695 42.0676C6.09884 37.2896 12.487 34.0269 19.3764 32.6239C26.2657 31.2208 33.4008 31.7294 40.0289 34.0959C40.7958 34.363 41.4648 34.8599 41.9472 35.5209C42.4297 36.1819 42.7029 36.9759 42.7308 37.7977C42.7357 37.8917 42.7373 37.9857 42.7357 38.0795C42.7226 38.8815 42.4837 39.663 42.0472 40.3319C41.6106 41.0008 40.9946 41.5291 40.2717 41.8548C39.6506 42.1453 38.9717 42.2866 38.2879 42.2676C37.7226 42.2549 37.1623 42.1557 36.6261 41.9733C33.7222 41.0079 30.6928 40.4862 27.6375 40.4253L27.5653 40.424C19.8557 40.2884 12.3819 43.1208 6.64965 48.3506C0.917439 53.5805 -2.64713 60.819 -3.32588 68.6079C-3.39473 69.3796 -3.43529 70.1489 -3.44757 70.9159C-3.57852 78.9654 -0.604204 86.7485 4.84151 92.6064C7.65651 95.6632 11.0641 98.0969 14.8506 99.7549C18.559 101.39 22.5496 102.265 26.5927 102.331C32.1459 102.439 37.6212 100.994 42.4184 98.1553C46.97 95.4731 50.7597 91.6423 53.4192 87.0352C56.0786 82.4282 57.5173 77.2018 57.5954 71.864C57.607 71.1937 57.5968 70.5221 57.5648 69.8491C57.5593 69.7373 57.558 69.626 57.5608 69.5152C57.5733 68.7959 57.7484 68.0891 58.0724 67.4492C58.3965 66.8093 58.861 66.2532 59.4302 65.8238C59.5721 65.7167 59.7204 65.6187 59.8742 65.5302C60.4985 65.1701 61.2072 64.988 61.9253 65.0031C62.9702 65.0238 63.9687 65.4445 64.7205 66.1808C65.4722 66.917 65.9216 67.9143 65.9784 68.9725C66.0379 69.9784 66.0595 70.9855 66.0431 71.9938C65.9545 77.443 64.7667 82.8161 62.5528 87.7821C60.2996 92.7827 57.0435 97.2524 52.9921 100.906C48.9407 104.559 44.183 107.317 39.0223 109.002C33.8616 110.687 28.4112 111.263 23.0188 110.693C17.6263 110.124 12.4101 108.42 7.70284 105.693Z" fill="#07D83F"/>
<path id="Union 557" d="M12.6024 108.091C9.48604 106.833 6.54415 105.169 3.85068 103.141C1.03967 101.02 -1.48142 98.5293 -3.64663 95.7354C-6.41596 92.17 -8.54737 88.1398 -9.94404 83.8279C-10.7443 81.3663 -11.3039 78.831 -11.6148 76.2584C-12.3684 70.0108 -11.6575 63.671 -9.53978 57.7544C-8.01016 53.4881 -5.75642 49.526 -2.88044 46.0472C1.62622 40.5799 7.50448 36.4475 14.1342 34.0858C20.764 31.7241 27.8994 31.2207 34.7877 32.6288C35.5839 32.7851 36.3145 33.1827 36.883 33.7692C37.4515 34.3557 37.831 35.1033 37.9715 35.9133C37.9892 36.0056 38.0037 36.0984 38.015 36.1916C38.1119 36.9877 37.9825 37.7952 37.642 38.5191C37.3015 39.2431 36.7641 39.8533 36.0931 40.2779C35.5179 40.6533 34.865 40.889 34.1853 40.9666C33.6238 41.0343 33.0554 41.0156 32.4994 40.9112C29.4913 40.365 26.4198 40.2759 23.3858 40.6468L23.3141 40.6557C15.6611 41.6094 8.64893 45.4688 3.69027 51.4564C-1.2684 57.4441 -3.80503 65.115 -3.40857 72.9236C-3.37084 73.6975 -3.30542 74.4651 -3.21231 75.2264C-2.23726 83.216 1.77627 90.5035 7.97295 95.5359C11.1801 98.1656 14.8885 100.095 18.8657 101.202C22.7624 102.298 26.8342 102.601 30.8471 102.096C36.361 101.419 41.5848 99.2156 45.9457 95.7275C50.0848 92.4291 53.3119 88.1007 55.3133 83.1631C57.3146 78.2256 58.022 72.847 57.3667 67.5502C57.2861 66.8847 57.1839 66.2211 57.0599 65.5592C57.0391 65.4492 57.0225 65.3392 57.0101 65.2291C56.9238 64.515 57.0001 63.7904 57.2332 63.111C57.4663 62.4315 57.85 61.8153 58.3547 61.3098C58.4805 61.1837 58.6139 61.0657 58.7541 60.9564C59.3225 60.512 59.9988 60.2316 60.7115 60.1451C61.749 60.0182 62.7956 60.2939 63.6411 60.9168C64.4865 61.5398 65.0684 62.464 65.2699 63.5039C65.4669 64.4916 65.6265 65.4858 65.7486 66.4867C66.4087 71.8953 65.9699 77.3837 64.4591 82.6138C62.9141 87.8836 60.3031 92.7691 56.7927 96.9587C53.2822 101.148 48.9494 104.55 44.0703 106.947C39.1913 109.344 33.8732 110.684 28.4552 110.881C23.0372 111.078 17.6382 110.128 12.6024 108.091Z" fill="#07D83F" stroke="#06D83F"/>
<path id="Union 558" d="M1.09292 100.86C-1.41109 98.5963 -3.6144 96.0125 -5.46164 93.1732C-7.38756 90.2045 -8.91667 86.9899 -10.009 83.6135C-11.4088 79.3027 -12.0523 74.7763 -11.9105 70.24C-11.8322 67.6494 -11.503 65.0728 -10.9275 62.5475C-9.52848 56.4153 -6.72216 50.7044 -2.73667 45.8792C0.139632 42.4007 3.59379 39.4592 7.46963 37.1876C13.5485 33.6132 20.466 31.7687 27.4925 31.8488C34.5189 31.929 41.3938 33.9307 47.3918 37.643C48.0873 38.066 48.6397 38.6931 48.9761 39.4413C49.3125 40.1896 49.417 41.0238 49.2758 41.8336C49.2613 41.9265 49.2436 42.0188 49.2228 42.1103C49.0456 42.892 48.6517 43.606 48.0875 44.1682C47.5234 44.7305 46.8125 45.1174 46.0386 45.2835C45.3715 45.4368 44.6785 45.4318 44.0136 45.269C43.4631 45.1379 42.9353 44.9232 42.448 44.6322C39.8055 43.0757 36.9493 41.9266 33.9732 41.2229L33.9028 41.2064C26.3898 39.4483 18.4988 40.6429 11.8197 44.5496C5.14056 48.4563 0.169715 54.7848 -2.09141 62.2601C-2.31696 63.0003 -2.51437 63.7443 -2.68364 64.492C-4.46209 72.3379 -3.14851 80.578 0.977154 87.4561C3.10395 91.0395 5.93812 94.1385 9.30184 96.5587C12.5942 98.9394 16.318 100.637 20.2593 101.554C25.669 102.83 31.3208 102.572 36.5952 100.806C41.5972 99.1424 46.0896 96.1943 49.6355 92.2486C53.1814 88.303 55.6603 83.4941 56.831 78.2894C56.9797 77.6362 57.1075 76.9771 57.2142 76.3121C57.2318 76.2016 57.2533 76.0924 57.2788 75.9847C57.4385 75.2837 57.7546 74.6293 58.2028 74.0717C58.651 73.514 59.2193 73.0681 59.8641 72.7681C60.0248 72.6932 60.19 72.6286 60.3586 72.5745C61.0426 72.354 61.7727 72.3252 62.4716 72.491C63.4894 72.7316 64.3798 73.3536 64.9642 74.2323C65.5486 75.1109 65.7837 76.1812 65.6223 77.2283C65.4743 78.2247 65.2889 79.2144 65.0661 80.1972C63.8622 85.5086 61.5987 90.5138 58.415 94.9045C55.1859 99.3207 51.0846 103.006 46.3728 105.725C41.661 108.445 36.4421 110.139 31.0488 110.699C25.6556 111.259 20.2063 110.674 15.0487 108.98C9.89099 107.285 5.13804 104.52 1.09292 100.86Z" fill="#07D83F" stroke="#06D83F"/>
<path id="Path 19703" d="M26.7132 85.5984C25.9974 85.5985 25.2886 85.4556 24.6273 85.178C23.966 84.9003 23.3652 84.4932 22.859 83.9801L9.60482 70.5409C8.59959 69.5007 8.03976 68.1003 8.04694 66.6439C8.05413 65.1876 8.62777 63.7929 9.6432 62.763C10.6586 61.7331 12.0338 61.1511 13.47 61.1436C14.9062 61.136 16.2872 61.7035 17.3131 62.7227L26.7132 72.2549L62.6715 35.2809C63.1775 34.7674 63.7783 34.36 64.4396 34.0821C65.1009 33.8042 65.8098 33.6611 66.5257 33.6611C67.2415 33.6611 67.9504 33.8042 68.6117 34.0821C69.273 34.36 69.8738 34.7674 70.3798 35.2809C70.8864 35.794 71.2883 36.4034 71.5625 37.0741C71.8367 37.7449 71.9778 38.4639 71.9778 39.19C71.9778 39.9161 71.8367 40.635 71.5625 41.3058C71.2883 41.9765 70.8864 42.5859 70.3798 43.0991L30.5673 83.9801C30.0611 84.4932 29.4603 84.9003 28.799 85.178C28.1377 85.4556 27.4289 85.5985 26.7132 85.5984Z" fill="#07D83F"/>
</g>
</g>
</g>
</g>
</g>
</g>
</g>
</g>
</svg>
