<svg width="101" height="100" viewBox="0 0 101 100" fill="none" xmlns="http://www.w3.org/2000/svg">
<g id="Group 37716">
<path id="Rectangle 9176" d="M78.6255 0H22.3766C10.2955 0 0.501953 9.79359 0.501953 21.8746V78.1236C0.501953 90.2046 10.2955 99.9982 22.3766 99.9982H78.6255C90.7065 99.9982 100.5 90.2046 100.5 78.1236V21.8746C100.5 9.79359 90.7065 0 78.6255 0Z" fill="#002874"/>
<g id="Group 10857">
<g id="Clip path group">
<mask id="mask0_888_1592" style="mask-type:luminance" maskUnits="userSpaceOnUse" x="0" y="0" width="101" height="100">
<g id="clip-path-3">
<path id="Rectangle 8976" d="M78.6236 0.00146484H22.3746C10.2936 0.00146484 0.5 9.79506 0.5 21.8761V78.125C0.5 90.206 10.2936 99.9996 22.3746 99.9996H78.6236C90.7046 99.9996 100.498 90.206 100.498 78.125V21.8761C100.498 9.79506 90.7046 0.00146484 78.6236 0.00146484Z" fill="white"/>
</g>
</mask>
<g mask="url(#mask0_888_1592)">
<g id="Mask Group 301">
<path id="Rectangle 10501" opacity="0.186" d="M96.0524 32.3504L53.1605 75.2423C50.5898 77.813 50.5898 81.9809 53.1605 84.5516L53.1616 84.5527C55.7323 87.1234 59.9003 87.1234 62.471 84.5527L105.363 41.6609C107.934 39.0902 107.934 34.9222 105.363 32.3515L105.362 32.3504C102.791 29.7797 98.6231 29.7797 96.0524 32.3504Z" fill="url(#paint0_linear_888_1592)"/>
<path id="Rectangle 10502" d="M72.775 55.6297L29.8832 98.5216C27.3125 101.092 27.3125 105.26 29.8832 107.831L29.8843 107.832C32.455 110.403 36.6229 110.403 39.1936 107.832L82.0855 64.9402C84.6562 62.3695 84.6562 58.2015 82.0855 55.6308L82.0844 55.6297C79.5137 53.059 75.3457 53.059 72.775 55.6297Z" fill="url(#paint1_linear_888_1592)"/>
<path id="Rectangle 10503" opacity="0.201" d="M91.395 2.30957L26.5004 67.2042C23.9297 69.7749 23.9297 73.9429 26.5004 76.5136L26.5015 76.5147C29.0722 79.0854 33.2401 79.0854 35.8108 76.5147L100.705 11.62C103.276 9.04931 103.276 4.88138 100.705 2.31068L100.704 2.30957C98.1336 -0.261129 93.9657 -0.261127 91.395 2.30957Z" fill="url(#paint2_linear_888_1592)"/>
<path id="Rectangle 10504" d="M39.3443 54.3623L-3.54651 97.253C-6.11721 99.8237 -6.11721 103.992 -3.54651 106.562L-3.5454 106.563C-0.974699 109.134 3.19323 109.134 5.76393 106.563L48.6547 63.6727C51.2254 61.102 51.2254 56.9341 48.6547 54.3634L48.6536 54.3623C46.0829 51.7916 41.915 51.7916 39.3443 54.3623Z" fill="url(#paint3_linear_888_1592)"/>
<path id="Rectangle 10505" opacity="0.25" d="M62.6197 -4.46487L19.7289 38.4259C17.1582 40.9966 17.1582 45.1645 19.7289 47.7352L19.73 47.7363C22.3007 50.307 26.4686 50.307 29.0393 47.7363L71.9301 4.84557C74.5008 2.27487 74.5008 -1.89306 71.9301 -4.46376L71.929 -4.46487C69.3583 -7.03557 65.1904 -7.03557 62.6197 -4.46487Z" fill="url(#paint4_linear_888_1592)"/>
<path id="Rectangle 10506" d="M38.4966 19.6582L-4.39416 62.5489C-6.96486 65.1196 -6.96486 69.2876 -4.39416 71.8583L-4.39306 71.8594C-1.82236 74.4301 2.34557 74.4301 4.91628 71.8594L47.807 28.9686C50.3777 26.3979 50.3777 22.23 47.807 19.6593L47.8059 19.6582C45.2352 17.0875 41.0673 17.0875 38.4966 19.6582Z" fill="url(#paint5_linear_888_1592)"/>
</g>
</g>
</g>
</g>
</g>
<defs>
<linearGradient id="paint0_linear_888_1592" x1="104.59" y1="33.9799" x2="15.7366" y2="46.4523" gradientUnits="userSpaceOnUse">
<stop stop-color="#21C1F3" stop-opacity="0"/>
<stop offset="1" stop-color="#21C1F3"/>
</linearGradient>
<linearGradient id="paint1_linear_888_1592" x1="45.2721" y1="92.1079" x2="61.3137" y2="49.2276" gradientUnits="userSpaceOnUse">
<stop stop-color="#04A8DE"/>
<stop offset="1" stop-color="#4ED5FF"/>
</linearGradient>
<linearGradient id="paint2_linear_888_1592" x1="76.3059" y1="24.3629" x2="74.7245" y2="58.0513" gradientUnits="userSpaceOnUse">
<stop stop-color="#21C1F3" stop-opacity="0"/>
<stop offset="1" stop-color="#21C1F3"/>
</linearGradient>
<linearGradient id="paint3_linear_888_1592" x1="47.8818" y1="55.9917" x2="8.46285" y2="56.814" gradientUnits="userSpaceOnUse">
<stop stop-color="#30CBFC"/>
<stop offset="1" stop-color="#1186DB"/>
</linearGradient>
<linearGradient id="paint4_linear_888_1592" x1="71.1572" y1="-2.83543" x2="41.1968" y2="6.09659" gradientUnits="userSpaceOnUse">
<stop stop-color="#6ADCFF" stop-opacity="0"/>
<stop offset="1" stop-color="#21C1F3"/>
</linearGradient>
<linearGradient id="paint5_linear_888_1592" x1="47.0342" y1="21.2876" x2="7.61519" y2="22.1099" gradientUnits="userSpaceOnUse">
<stop stop-color="#1185DB"/>
<stop offset="1" stop-color="#21C1F3"/>
</linearGradient>
</defs>
</svg>
