<svg width="146" height="145" viewBox="0 0 146 145" fill="none" xmlns="http://www.w3.org/2000/svg">
<path d="M115.343 0H29.6609C13.2807 0 0.00183105 13.2788 0.00183105 29.6591V115.341C0.00183105 131.721 13.2807 145 29.6609 145H115.343C131.723 145 145.002 131.721 145.002 115.341V29.6591C145.002 13.2788 131.723 0 115.343 0Z" fill="#232B2E"/>
<mask id="mask0_719_1809" style="mask-type:luminance" maskUnits="userSpaceOnUse" x="0" y="0" width="146" height="145">
<path d="M115.343 0H29.6609C13.2807 0 0.00183105 13.2788 0.00183105 29.6591V115.341C0.00183105 131.721 13.2807 145 29.6609 145H115.343C131.723 145 145.002 131.721 145.002 115.341V29.6591C145.002 13.2788 131.723 0 115.343 0Z" fill="white"/>
</mask>
<g mask="url(#mask0_719_1809)">
<path d="M2.93536 155.606C1.45792 154.124 0.628655 152.115 0.629313 150.022C0.629955 147.929 1.46049 145.921 2.93886 144.439L34.2643 113.113C35.7464 111.636 37.754 110.805 39.847 110.805C41.9401 110.805 43.948 111.634 45.4308 113.111L76.7573 144.438C78.2356 145.92 79.0657 147.928 79.0657 150.022C79.0657 152.116 78.2356 154.124 76.7573 155.607L45.4319 186.932C43.9495 188.411 41.9411 189.241 39.8472 189.241C37.7532 189.242 35.7447 188.412 34.2619 186.933L2.93536 155.606ZM17.3735 150.023L39.8452 172.495L62.318 150.022L39.8452 127.549L17.3735 150.023ZM-31.2423 100.149C-33.7935 97.5924 -35.2263 94.1279 -35.2263 90.516C-35.2263 86.904 -33.7935 83.4396 -31.2422 80.8828L31.8466 17.7939C34.4031 15.2411 37.8681 13.807 41.4809 13.8063C45.0937 13.8057 48.5591 15.2385 51.1165 17.7904L74.3397 41.0135C76.8933 43.5708 78.3278 47.037 78.3282 50.6509C78.3287 54.2649 76.895 57.7313 74.342 60.2893L11.2531 123.378C8.6955 125.929 5.23054 127.361 1.61829 127.361C-1.99397 127.36 -5.45857 125.927 -8.0156 123.376L-31.2423 100.149ZM41.488 28.1716L-21.2327 90.8923L1.99161 113.362L64.329 50.2762L41.488 28.1716ZM53.4002 111.606C50.8489 109.049 49.4161 105.585 49.4161 101.973C49.4161 98.3606 50.8489 94.8962 53.4002 92.3394L80.6302 65.1094C83.187 62.5575 86.6517 61.1241 90.2641 61.1236C93.8764 61.1232 97.3415 62.5558 99.8989 65.107L123.126 88.3337C125.677 90.8911 127.109 94.3562 127.109 97.9685C127.109 101.581 125.675 105.046 123.123 107.602L95.8921 134.834C93.3353 137.385 89.8708 138.818 86.2589 138.818C82.6469 138.818 79.1825 137.385 76.6257 134.834L53.4002 111.606ZM90.2704 75.4882L63.4085 102.35L86.6364 124.823L113.113 97.5917L90.2704 75.4882Z" fill="#FFAF2E"/>
</g>
</svg>
