<svg width="146" height="146" viewBox="0 0 146 146" fill="none" xmlns="http://www.w3.org/2000/svg">
<path d="M120.836 0H24.1702C10.8235 0 0.00384521 10.8197 0.00384521 24.1665V120.832C0.00384521 134.179 10.8235 144.999 24.1702 144.999H120.836C134.182 144.999 145.002 134.179 145.002 120.832V24.1665C145.002 10.8197 134.182 0 120.836 0Z" fill="#0B186A"/>
<mask id="mask0_719_1613" style="mask-type:luminance" maskUnits="userSpaceOnUse" x="0" y="0" width="145" height="146">
<path d="M120.833 0.00366211H24.1679C10.8212 0.00366211 0.00158691 10.8234 0.00158691 24.1701V120.836C0.00158691 134.183 10.8212 145.002 24.1679 145.002H120.833C134.18 145.002 145 134.183 145 120.836V24.1701C145 10.8234 134.18 0.00366211 120.833 0.00366211Z" fill="white"/>
</mask>
<g mask="url(#mask0_719_1613)">
<path d="M82.1808 183.041C49.5804 174.275 16.4339 165.384 -15.6295 156.785L-55.3155 146.145C-56.0803 146.003 -56.8053 145.697 -57.4402 145.248C-58.0751 144.798 -58.605 144.216 -58.9931 143.542C-59.3812 142.868 -59.6183 142.118 -59.6881 141.343C-59.7579 140.568 -59.6587 139.788 -59.3973 139.055C-57.9546 133.62 -56.4775 128.111 -55.0081 122.685C-54.842 121.929 -54.5271 121.215 -54.0819 120.582C-53.6366 119.95 -53.07 119.412 -52.4148 119.001C-51.7334 118.639 -50.9868 118.415 -50.2184 118.343C-49.4499 118.271 -48.6748 118.352 -47.9379 118.581C-47.471 118.706 -46.9652 118.842 -46.3601 119.004L-44.6093 119.474L-44.3657 118.565C-44.071 117.466 -43.7716 116.349 -43.479 115.258C-42.7968 112.713 -42.1052 110.079 -41.3857 107.497C-41.2161 106.808 -40.9107 106.161 -40.4876 105.592C-40.0645 105.023 -39.5321 104.544 -38.9215 104.183C-38.311 103.822 -37.6346 103.587 -36.932 103.491C-36.2294 103.395 -35.5148 103.441 -34.8299 103.625C-34.6782 103.665 -34.5121 103.699 -34.3156 103.752L-23.0686 61.8033C-24.6308 61.4331 -25.9883 60.4711 -26.8554 59.1198C-27.5762 57.6659 -27.6904 55.9853 -27.1727 54.4472C-26.7863 53.0057 -26.3904 51.5291 -26.0106 50.1129C-25.8465 49.5007 -25.6821 48.8873 -25.5172 48.2725L-24.1168 43.0491L-25.7392 42.6141C-26.2197 42.4853 -26.6925 42.3585 -27.1632 42.2323C-28.5173 41.9231 -29.7423 41.202 -30.6698 40.1682C-31.5059 39.1585 -31.9182 37.864 -31.8201 36.5567C-31.7249 35.2613 -31.1718 34.042 -30.2598 33.1171C-29.3478 32.1921 -28.1364 31.6219 -26.8424 31.5084L-9.166 27.9235C2.14794 25.6312 13.8542 23.2523 25.3614 20.916C31.4445 19.6777 37.6299 18.4001 43.6103 17.1634L51.7763 15.4827L51.9846 15.4447L54.6926 16.1707L54.8611 16.3202L55.3353 16.7601C55.6691 17.0706 56.0019 17.3851 56.3393 17.682C59.3726 20.3678 62.4066 23.0511 65.4413 25.7317C81.4663 39.9103 98.0343 54.5681 114.349 68.966C115.905 70.1885 116.983 71.918 117.396 73.8536L117.43 74.0481L116.714 76.7191L116.593 76.8661C115.836 77.8858 114.779 78.6436 113.571 79.0336C112.362 79.4237 111.062 79.4264 109.852 79.0415C109.564 78.9643 109.272 78.8695 108.971 78.7574C108.669 78.6453 108.333 78.5384 107.919 78.4273C107.606 78.3433 107.282 78.267 106.971 78.1899L106.798 78.1435C106.008 81.0888 105.085 84.5341 104.155 88.0008C103.425 90.7244 102.778 92.3589 101.498 93.2439C99.9577 94.0522 98.1783 94.281 96.4834 93.8887L85.2432 135.812C85.3696 135.846 85.4805 135.876 85.5875 135.904C87.0151 136.284 88.24 137.202 89.0045 138.466C89.71 139.762 89.8794 141.283 89.4764 142.702C89.3241 143.27 89.1691 143.848 89.021 144.401C88.9532 144.654 88.8854 144.906 88.8181 145.157L86.2931 154.575L86.4876 154.627C86.8359 154.721 87.1938 154.817 87.5452 154.898C87.8965 154.98 88.2691 155.076 88.629 155.172C89.8812 155.448 91.0618 155.983 92.0951 156.742C93.2592 157.719 93.994 159.114 94.1417 160.627L94.1646 160.806L88.8251 180.721L88.6776 180.89C87.913 181.792 86.9409 182.495 85.8448 182.939C84.6619 183.364 83.3746 183.402 82.169 183.046L82.1808 183.041ZM-47.7152 137.008L80.1751 171.312L81.9824 164.571L-45.9079 130.267L-47.7152 137.008ZM60.0652 68.7581C59.3235 71.5245 58.5567 74.3842 57.8056 77.1856C57.4869 78.7884 56.5508 80.2016 55.1993 81.1202C53.782 81.8735 52.1236 82.0333 50.5885 81.5647L39.3426 123.509L39.4029 123.526C39.5974 123.578 39.7628 123.622 39.9139 123.673C40.5943 123.871 41.2286 124.202 41.7801 124.646C42.3316 125.091 42.7893 125.641 43.1266 126.264C43.4639 126.887 43.6741 127.571 43.745 128.276C43.8159 128.981 43.7461 129.693 43.5396 130.371C42.7668 133.331 41.9544 136.346 41.1672 139.258C40.9057 140.234 40.6439 141.21 40.3817 142.188L47.2898 144.04L50.1194 133.487C50.3845 131.656 51.3518 130.001 52.8165 128.872C54.2729 128.128 55.9556 127.96 57.5303 128.4L68.77 86.4791C67.2098 86.0731 65.8686 85.0764 65.0298 83.6996C64.6272 82.8214 64.4107 81.8695 64.3937 80.9035C64.3767 79.9376 64.5597 78.9786 64.9312 78.0868C65.7386 75.5654 66.4116 72.9307 67.068 70.3813C67.2965 69.5292 67.5107 68.6525 67.739 67.7774L60.8329 65.9258C60.5742 66.8698 60.3183 67.814 60.0652 68.7581ZM12.0611 64.122C11.7943 65.9597 10.8253 67.6224 9.35781 68.7604C7.90455 69.5143 6.2177 69.6829 4.64398 69.2315L-6.60459 111.186C-5.02075 111.611 -3.6487 112.603 -2.75028 113.975C-2.03811 115.74 -2.04339 117.713 -2.76498 119.474L-3.37628 121.754C-4.05852 124.299 -4.76475 126.933 -5.45846 129.52C-5.48819 129.631 -5.51844 129.744 -5.53754 129.862L1.34331 131.707L1.51074 131.082C1.81222 129.958 2.11943 128.812 2.41569 127.707C3.10315 125.143 3.80538 122.485 4.52676 119.88C4.69974 119.179 5.00908 118.52 5.43709 117.939C5.8651 117.358 6.40338 116.868 7.02116 116.495C8.28724 115.781 9.78168 115.59 11.1869 115.96C11.3095 115.993 11.4398 116.028 11.5935 116.069L22.8421 74.1149C21.2707 73.7444 19.9063 72.7747 19.0396 71.4126C18.3165 69.835 18.2487 68.035 18.8509 66.4075C19.5238 63.8979 20.1965 61.389 20.869 58.8807L21.7901 55.4452L14.8839 53.5935L12.0611 64.122ZM57.6839 146.804L75.8947 151.687L77.7005 144.952L59.4877 140.069L57.6839 146.804ZM11.7396 134.486L29.9427 139.366L31.7484 132.631L13.5434 127.75L11.7396 134.486ZM-34.1716 122.176L-15.9414 127.064L-14.1356 120.329L-32.3678 115.441L-34.1716 122.176ZM68.0464 131.145L74.7716 132.948L85.9858 91.122L79.2566 89.3178L68.0464 131.145ZM22.1021 118.826L28.8351 120.632L40.0346 78.8601L33.3036 77.0554L22.1021 118.826ZM-23.8383 106.509L-17.1092 108.313L-5.91021 66.5435L-12.6432 64.7383L-23.8383 106.509ZM-15.5701 52.6724L2.65437 57.5587L4.45959 50.8256L-13.7668 45.9388L-15.5701 52.6724ZM76.3594 77.3203L94.5702 82.203L96.3734 75.4777L78.1606 70.5946L76.3594 77.3203ZM30.3971 64.9678L48.6371 69.8583L50.4418 63.1272L32.2018 58.2367L30.3971 64.9678ZM49.6201 26.9468C32.1352 30.4476 14.3647 34.049 -2.82148 37.5318L-3.02886 37.5742L91.2753 62.8693L89.504 61.3017C76.8377 50.0964 63.7421 38.5091 50.8293 27.1501C50.7215 27.073 50.5991 27.0189 50.4695 26.9911C50.1926 26.9167 49.9032 26.9016 49.6201 26.9468Z" fill="#A1ABF4"/>
<path d="M48.19 35.3587C47.6192 35.1996 47.0226 35.1548 46.4344 35.2267C45.8462 35.2986 45.278 35.4859 44.7624 35.7779C44.2468 36.0698 43.7938 36.4607 43.4295 36.928C43.0652 37.3954 42.7967 37.93 42.6395 38.5013C42.3558 39.6355 42.5239 40.8354 43.1082 41.848C43.6926 42.8605 44.6476 43.6064 45.7715 43.9281C46.9034 44.2238 48.1061 44.0676 49.1249 43.4925C50.1438 42.9174 50.8989 41.9684 51.2306 40.8465C51.5359 39.716 51.3894 38.511 50.8218 37.4867C50.2543 36.4624 49.3104 35.6992 48.19 35.3587Z" fill="#A1ABF4"/>
<path d="M48.3273 34.4807L48.4362 34.51C49.1044 34.7063 49.7274 35.0325 50.2695 35.4698C50.8116 35.907 51.2622 36.4469 51.5956 37.0584C52.0961 37.9732 52.3179 39.0145 52.2336 40.0539C52.1493 41.0933 51.7626 42.0852 51.1211 42.9074C50.4797 43.7295 49.6116 44.3459 48.6239 44.6805C47.6362 45.0151 46.5723 45.0532 45.5632 44.7901L45.5418 44.7844C44.8707 44.6006 44.2424 44.2864 43.6928 43.8596C43.1432 43.4329 42.6831 42.902 42.3389 42.2973C41.8172 41.3843 41.5767 40.3376 41.6475 39.2885C41.7182 38.2393 42.0971 37.2344 42.7366 36.3997C43.376 35.565 44.2477 34.9377 45.2422 34.5963C46.2368 34.2549 47.31 34.2147 48.3273 34.4807ZM46.0195 43.0881C46.9263 43.3171 47.8864 43.1867 48.6993 42.7243C49.5122 42.2619 50.1149 41.5032 50.3815 40.6068C50.6224 39.7005 50.5027 38.7362 50.0476 37.9163C49.5925 37.0964 48.8374 36.4847 47.9408 36.2098L47.8689 36.1906C46.953 35.9601 45.9833 36.0963 45.1663 36.57C44.3492 37.0437 43.7493 37.8175 43.4942 38.7268C43.2678 39.637 43.403 40.5995 43.8714 41.4121C44.3397 42.2247 45.1048 42.8242 46.0059 43.0845L46.0195 43.0881Z" fill="#A1ABF4"/>
</g>
</svg>
