<svg width="101" height="100" viewBox="0 0 101 100" fill="none" xmlns="http://www.w3.org/2000/svg">
<path d="M83.8333 0H17.1667C7.96192 0 0.5 7.46192 0.5 16.6667V83.3333C0.5 92.5381 7.96192 100 17.1667 100H83.8333C93.0381 100 100.5 92.5381 100.5 83.3333V16.6667C100.5 7.46192 93.0381 0 83.8333 0Z" fill="#05323F"/>
<mask id="mask0_888_1525" style="mask-type:luminance" maskUnits="userSpaceOnUse" x="0" y="0" width="101" height="100">
<path d="M83.8333 0H17.1667C7.96192 0 0.5 7.46192 0.5 16.6667V83.3333C0.5 92.5381 7.96192 100 17.1667 100H83.8333C93.0381 100 100.5 92.5381 100.5 83.3333V16.6667C100.5 7.46192 93.0381 0 83.8333 0Z" fill="white"/>
</mask>
<g mask="url(#mask0_888_1525)">
<path d="M22.1657 20.2788L-1.07045 106.943L60.2705 123.39L79.749 49.7946L70.0862 34.3419L22.1657 20.2788ZM21.4756 8.96275L72.2373 22.6435L90.0365 53.9058L69.7288 129.648C69.2377 131.48 68.0393 133.041 66.3971 133.989C64.7549 134.937 62.8035 135.193 60.9721 134.702L-7.32574 116.39C-9.15729 115.899 -10.7188 114.701 -11.6668 113.059C-12.6149 111.416 -12.8719 109.465 -12.3812 107.633L12.7189 14.0166C13.2099 12.1852 14.4084 10.6239 16.0506 9.67611C17.6928 8.72832 19.6442 8.47172 21.4756 8.96275ZM90.1699 53.4083L90.0361 53.9074C90.1367 53.5323 90.1699 53.4083 90.1699 53.4083Z" fill="#3FFDE4"/>
<path d="M66.4344 68.3029L20.9744 56.1144C20.5028 55.9555 20.1132 55.6165 19.8904 55.1715C19.6677 54.7264 19.6301 54.2113 19.7856 53.7386C19.8874 53.2516 20.1777 52.8246 20.5932 52.551C21.0086 52.2773 21.5155 52.1791 22.0031 52.2778L67.4631 64.4663C67.9347 64.6248 68.3244 64.9634 68.5473 65.4082C68.7701 65.853 68.8078 66.3679 68.6523 66.8405C68.5505 67.3277 68.2602 67.7548 67.8447 68.0288C67.4292 68.3027 66.9223 68.4013 66.4344 68.3029Z" fill="#3FFDE4"/>
<path d="M63.3485 79.8132L17.8885 67.6247C17.4169 67.4657 17.0272 67.1268 16.8045 66.6817C16.5818 66.2367 16.5441 65.7216 16.6997 65.2488C16.8014 64.7618 17.0918 64.3349 17.5072 64.0612C17.9227 63.7875 18.4296 63.6893 18.9172 63.788L64.3771 75.9766C64.8487 76.135 65.2385 76.4737 65.4613 76.9185C65.6841 77.3633 65.7219 77.8782 65.5664 78.3508C65.4646 78.838 65.1743 79.2651 64.7588 79.5391C64.3433 79.813 63.8363 79.9116 63.3485 79.8132Z" fill="#3FFDE4"/>
<path d="M40.6305 86.0592L15.0186 79.1923C14.7666 79.1247 14.5305 79.0082 14.3236 78.8494C14.1167 78.6906 13.9431 78.4926 13.8128 78.2667C13.6824 78.0408 13.5978 77.7915 13.5638 77.5329C13.5298 77.2743 13.547 77.0115 13.6146 76.7596C13.6821 76.5077 13.7986 76.2716 13.9574 76.0647C14.1162 75.8578 14.3142 75.6842 14.5401 75.5538C14.766 75.4234 15.0154 75.3388 15.274 75.3048C15.5326 75.2708 15.7953 75.2881 16.0472 75.3556L41.6591 82.2226C42.1679 82.359 42.6016 82.6919 42.8649 83.1482C43.1282 83.6044 43.1995 84.1465 43.0631 84.6552C42.9267 85.164 42.5938 85.5978 42.1375 85.861C41.6813 86.1243 41.1392 86.1956 40.6305 86.0592Z" fill="#3FFDE4"/>
<g filter="url(#filter0_d_888_1525)">
<path d="M72.2513 22.8477L90.0677 53.9448L72.5144 49.2571C71.6104 49.0127 70.7635 48.5925 70.0222 48.0203C69.2809 47.4482 68.6597 46.7355 68.1942 45.9229C67.7287 45.1104 67.4281 44.214 67.3095 43.2851C67.191 42.3562 67.2568 41.413 67.5033 40.5096L69.9157 31.5096L72.2513 22.8477Z" fill="#3FFDE4"/>
</g>
</g>
<defs>
<filter id="filter0_d_888_1525" x="52.252" y="7.84766" width="52.8164" height="61.0972" filterUnits="userSpaceOnUse" color-interpolation-filters="sRGB">
<feFlood flood-opacity="0" result="BackgroundImageFix"/>
<feColorMatrix in="SourceAlpha" type="matrix" values="0 0 0 0 0 0 0 0 0 0 0 0 0 0 0 0 0 0 127 0" result="hardAlpha"/>
<feOffset/>
<feGaussianBlur stdDeviation="7.5"/>
<feColorMatrix type="matrix" values="0 0 0 0 0 0 0 0 0 0 0 0 0 0 0 0 0 0 0.349 0"/>
<feBlend mode="normal" in2="BackgroundImageFix" result="effect1_dropShadow_888_1525"/>
<feBlend mode="normal" in="SourceGraphic" in2="effect1_dropShadow_888_1525" result="shape"/>
</filter>
</defs>
</svg>
