<svg width="146" height="145" viewBox="0 0 146 145" fill="none" xmlns="http://www.w3.org/2000/svg">
<path d="M107.024 0H37.9775C17.0041 0 0.00183105 17.0021 0.00183105 37.9753V107.021C0.00183105 127.994 17.0041 144.997 37.9775 144.997H107.024C127.997 144.997 145 127.994 145 107.021V37.9753C145 17.0021 127.997 0 107.024 0Z" fill="#1A1F22"/>
<mask id="mask0_719_1676" style="mask-type:luminance" maskUnits="userSpaceOnUse" x="0" y="0" width="146" height="145">
<path d="M107.026 0.00341797H37.9794C17.0061 0.00341797 0.00379872 17.0055 0.00379872 37.9787V107.025C0.00379872 127.998 17.0061 145 37.9794 145H107.026C127.999 145 145.002 127.998 145.002 107.025V37.9787C145.002 17.0055 127.999 0.00341797 107.026 0.00341797Z" fill="white"/>
</mask>
<g mask="url(#mask0_719_1676)">
<path d="M-17.611 114.883C-19.3668 113.869 -20.648 112.2 -21.1727 110.241C-21.6974 108.283 -21.4227 106.196 -20.409 104.441C-19.3953 102.685 -17.7257 101.404 -15.7674 100.879C-13.809 100.354 -11.7225 100.629 -9.96669 101.643L68.5891 146.996C70.3449 148.01 71.626 149.68 72.1508 151.638C72.6755 153.596 72.4008 155.683 71.3871 157.439C70.3734 159.194 68.7038 160.476 66.7454 161C64.7871 161.525 62.7005 161.25 60.9448 160.237L-17.611 114.883ZM0.667625 94.0293C-3.0018 91.9368 -5.69142 88.4743 -6.81121 84.4013C-7.93101 80.3283 -7.38954 75.9775 -5.30559 72.3032L14.6575 37.7265C15.3719 36.4918 16.3267 35.4129 17.4654 34.5537C18.6041 33.6944 19.9035 33.0723 21.2869 32.7241L79.6978 17.9413C82.365 17.2677 85.1897 17.6602 87.572 19.0357C89.9543 20.4111 91.7067 22.661 92.4569 25.3076L108.879 83.313C109.265 84.682 109.373 86.1146 109.196 87.526C109.02 88.9374 108.562 90.2991 107.85 91.5307L87.8868 126.107C85.747 129.749 82.2505 132.393 78.164 133.46C74.0774 134.527 69.7345 133.93 66.0877 131.799L0.667625 94.0293ZM26.9185 47.0636L7.9307 79.9511C7.80211 80.1738 7.93452 80.5832 8.30676 80.7981L73.7268 118.568C74.096 118.781 74.5189 118.694 74.6483 118.47L93.6361 85.5827L79.0036 33.8885L26.9185 47.0636Z" fill="#13BBE3"/>
</g>
</svg>
