<svg width="100" height="100" viewBox="0 0 100 100" fill="none" xmlns="http://www.w3.org/2000/svg">
<g id="Group 37717">
<path id="Rectangle 9176" d="M78.2609 0H21.7391C9.73294 0 0 9.73294 0 21.7391V78.2609C0 90.2671 9.73294 100 21.7391 100H78.2609C90.2671 100 100 90.2671 100 78.2609V21.7391C100 9.73294 90.2671 0 78.2609 0Z" fill="#00235D"/>
<g id="Group 10857">
<g id="Clip path group">
<mask id="mask0_888_1549" style="mask-type:luminance" maskUnits="userSpaceOnUse" x="0" y="0" width="100" height="100">
<g id="clip-path-10">
<path id="Rectangle 8976" d="M78.2609 0H21.7391C9.73294 0 0 9.73294 0 21.7391V78.2609C0 90.2671 9.73294 100 21.7391 100H78.2609C90.2671 100 100 90.2671 100 78.2609V21.7391C100 9.73294 90.2671 0 78.2609 0Z" fill="white"/>
</g>
</mask>
<g mask="url(#mask0_888_1549)">
<g id="Mask Group 301">
<g id="Group 10873">
<g id="Group 7292">
<path id="Path 15424" d="M-14.6169 49.4371L33.0781 45.7677C33.5599 45.6389 34.0625 45.6066 34.5568 45.6728C35.0512 45.7389 35.5276 45.9022 35.9586 46.1532C36.3896 46.4042 36.7667 46.7379 37.0682 47.1352C37.3697 47.5325 37.5897 47.9855 37.7155 48.4682L58.413 91.972C58.6749 92.9471 58.5405 93.9862 58.0392 94.8626C57.5378 95.739 56.7102 96.3815 55.7369 96.6501L7.17471 101.837C6.69287 101.966 6.19032 101.998 5.69597 101.932C5.20161 101.866 4.72522 101.702 4.29422 101.451C3.86321 101.2 3.4861 100.867 3.18458 100.469C2.88306 100.072 2.66309 99.619 2.53732 99.1364L-17.2929 54.1152C-17.5548 53.14 -17.4205 52.1009 -16.9191 51.2245C-16.4178 50.3481 -15.5902 49.7056 -14.6169 49.4371Z" fill="#00235D"/>
<path id="Path 15424 - Outline" d="M-15.8724 44.7056L-15.4356 44.5886L32.3478 40.9135C34.4112 40.4875 36.5592 40.8422 38.3761 41.909C40.2092 42.9726 41.5869 44.6734 42.2469 46.6873L62.9862 90.2632L63.1044 90.7042C63.6994 92.9289 63.3915 95.2985 62.2478 97.2974C61.1041 99.2962 59.2171 100.762 56.9977 101.377L56.6302 101.475L7.98692 106.67C5.89873 107.124 3.71635 106.775 1.87355 105.693C0.0171209 104.616 -1.37155 102.886 -2.02171 100.84L-21.8822 55.7482L-21.9812 55.3786C-22.5763 53.1535 -22.2682 50.7835 -21.1241 48.7845C-19.9799 46.7855 -18.0924 45.3194 -15.8724 44.7056ZM33.37 50.6413L-11.9739 54.1398L6.87992 96.9448L53.0472 92.0171L33.37 50.6413Z" fill="url(#paint0_linear_888_1549)"/>
<path id="Path 15423" d="M-6.14228 34.6255L41.5527 30.9562C42.0345 30.8274 42.5371 30.7951 43.0314 30.8613C43.5258 30.9274 44.0022 31.0907 44.4332 31.3417C44.8642 31.5927 45.2413 31.9264 45.5428 32.3237C45.8443 32.721 46.0643 33.174 46.1901 33.6567L66.8876 77.1604C67.1495 78.1355 67.0151 79.1746 66.5138 80.0511C66.0124 80.9275 65.1848 81.57 64.2115 81.8385L15.6493 87.0254C15.1675 87.1542 14.6649 87.1864 14.1706 87.1203C13.6762 87.0541 13.1998 86.8909 12.7688 86.6399C12.3378 86.3889 11.9607 86.0551 11.6592 85.6578C11.3577 85.2605 11.1377 84.8075 11.0119 84.3249L-8.81832 39.3036C-9.08023 38.3285 -8.94585 37.2894 -8.44452 36.413C-7.94318 35.5366 -7.11558 34.894 -6.14228 34.6255Z" fill="#00235D"/>
<path id="Path 15423 - Outline" d="M-7.39583 29.8965L-6.95906 29.7795L40.8244 26.1044C42.8878 25.6785 45.0358 26.0332 46.8527 27.0999C48.6857 28.1635 50.0635 29.8643 50.7235 31.8783L71.4628 75.4541L71.5809 75.8951C72.1759 78.1198 71.8681 80.4895 70.7244 82.4883C69.5807 84.4871 67.6937 85.9532 65.4742 86.5675L65.1068 86.666L16.4629 91.8589C14.3695 92.2986 12.1873 91.946 10.3389 90.8693C8.49047 89.7926 7.10724 88.0684 6.45695 86.0305L-13.4056 40.9391L-13.5046 40.5695C-14.0997 38.3445 -13.7917 35.9744 -12.6475 33.9754C-11.5034 31.9764 -9.6158 30.5104 -7.39583 29.8965ZM41.8465 35.8322L-3.49732 39.3307L15.3565 82.1357L61.5237 77.208L41.8465 35.8322Z" fill="url(#paint1_linear_888_1549)"/>
<path id="Path 15422" d="M1.9046 20.5674L49.5996 16.8981C50.0814 16.7692 50.584 16.737 51.0783 16.8031C51.5727 16.8693 52.0491 17.0326 52.4801 17.2836C52.9111 17.5345 53.2882 17.8683 53.5897 18.2656C53.8912 18.6629 54.1112 19.1159 54.237 19.5985L74.9344 63.1023C75.1964 64.0774 75.062 65.1165 74.5606 65.9929C74.0593 66.8694 73.2317 67.5119 72.2584 67.7804L23.6962 72.9673C23.2144 73.0961 22.7118 73.1283 22.2174 73.0622C21.7231 72.996 21.2467 72.8327 20.8157 72.5818C20.3847 72.3308 20.0076 71.997 19.7061 71.5997C19.4045 71.2024 19.1846 70.7494 19.0588 70.2668L-0.77145 25.2455C-1.03335 24.2704 -0.898977 23.2313 -0.397642 22.3549C0.103693 21.4785 0.931295 20.8359 1.9046 20.5674Z" fill="#00235D"/>
<path id="Path 15422 - Outline" d="M0.651049 15.8379L1.08781 15.7209L48.8713 12.0458C50.9346 11.6199 53.0827 11.9746 54.8995 13.0413C56.7326 14.1049 58.1104 15.8057 58.7703 17.8197L79.5096 61.3955L79.6278 61.8365C80.2228 64.0612 79.9149 66.4309 78.7712 68.4297C77.6275 70.4285 75.7406 71.8946 73.5211 72.5089L73.1536 72.6074L24.5104 77.8024C22.4222 78.2559 20.2398 77.9071 18.397 76.8253C16.5406 75.748 15.1519 74.018 14.5017 71.9724L-5.35872 26.8805L-5.45775 26.5109C-6.05284 24.2859 -5.74478 21.9158 -4.60063 19.9168C-3.45649 17.9178 -1.56892 16.4518 0.651049 15.8379ZM49.8934 21.7736L4.54956 25.2721L23.4034 68.0771L69.5706 63.1494L49.8934 21.7736Z" fill="url(#paint2_linear_888_1549)"/>
</g>
</g>
</g>
</g>
</g>
</g>
</g>
<defs>
<linearGradient id="paint0_linear_888_1549" x1="35.7683" y1="49.0795" x2="-8.81187" y2="117.696" gradientUnits="userSpaceOnUse">
<stop stop-color="#33B0FF"/>
<stop offset="1" stop-color="#035AE5"/>
</linearGradient>
<linearGradient id="paint1_linear_888_1549" x1="44.2449" y1="34.2704" x2="-0.335307" y2="102.887" gradientUnits="userSpaceOnUse">
<stop stop-color="#33B0FF"/>
<stop offset="1" stop-color="#035AE5"/>
</linearGradient>
<linearGradient id="paint2_linear_888_1549" x1="52.2918" y1="20.2118" x2="7.71157" y2="88.8285" gradientUnits="userSpaceOnUse">
<stop stop-color="#33B0FF"/>
<stop offset="1" stop-color="#035AE5"/>
</linearGradient>
</defs>
</svg>
