<svg width="101" height="100" viewBox="0 0 101 100" fill="none" xmlns="http://www.w3.org/2000/svg">
<g id="Group 37715">
<path id="Rectangle 9176" d="M79.6667 0H21.3333C9.8274 0 0.5 9.3274 0.5 20.8333V79.1667C0.5 90.6726 9.8274 100 21.3333 100H79.6667C91.1726 100 100.5 90.6726 100.5 79.1667V20.8333C100.5 9.3274 91.1726 0 79.6667 0Z" fill="#3D4300"/>
<g id="Group 10857">
<g id="Clip path group">
<mask id="mask0_888_1583" style="mask-type:luminance" maskUnits="userSpaceOnUse" x="0" y="0" width="101" height="100">
<g id="clip-path-8">
<path id="Rectangle 8976" d="M79.6667 0H21.3333C9.8274 0 0.5 9.3274 0.5 20.8333V79.1667C0.5 90.6726 9.8274 100 21.3333 100H79.6667C91.1726 100 100.5 90.6726 100.5 79.1667V20.8333C100.5 9.3274 91.1726 0 79.6667 0Z" fill="white"/>
</g>
</mask>
<g mask="url(#mask0_888_1583)">
<g id="Mask Group 301">
<g id="Group 10869">
<path id="Union 422" d="M-28.4613 77.8251C-29.2059 77.4018 -29.8593 76.8353 -30.3837 76.1581C-30.9081 75.4809 -31.2931 74.7065 -31.5165 73.8796C-31.7399 73.0528 -31.7973 72.1898 -31.6853 71.3407C-31.5732 70.4915 -31.2941 69.673 -30.8639 68.9324L-4.11022 23.0352C-3.22727 21.5387 -1.79076 20.4499 -0.111335 20.0042C1.56809 19.5585 3.35548 19.7917 4.86431 20.6534L18.5618 28.4871L26.4698 14.9192C27.3528 13.4204 28.7907 12.3298 30.472 11.8836C32.1534 11.4373 33.9428 11.6714 35.4528 12.5351L80.4009 38.2453C81.1455 38.6682 81.7988 39.2343 82.3233 39.9112C82.8477 40.588 83.2329 41.362 83.4565 42.1885C83.68 43.015 83.7377 43.8777 83.6259 44.7266C83.5142 45.5755 83.2354 46.3939 82.8056 47.1344L56.0519 93.0315C55.1692 94.5288 53.7326 95.6184 52.0528 96.0648C50.3729 96.5112 48.5849 96.2785 47.0753 95.417L33.3779 87.5833L25.4709 101.149C24.5878 102.647 23.1504 103.737 21.4697 104.183C19.789 104.629 18.0003 104.396 16.4907 103.533L-28.4613 77.8251ZM-19.5656 70.6923L18.2747 92.347L24.1307 82.2998L2.12307 69.7139C1.37816 69.2909 0.724475 68.7243 0.199804 68.0471C-0.32487 67.3699 -0.71013 66.5954 -0.933705 65.7684C-1.15728 64.9415 -1.21475 64.0784 -1.10278 63.229C-0.990808 62.3797 -0.711624 61.561 -0.281361 60.8202L13.2236 37.6497L3.07589 31.8511L-19.5656 70.6923ZM48.8619 84.2183L71.5035 45.377L33.6577 23.736L27.8016 33.7832L49.8093 46.3691C50.5542 46.7918 51.2079 47.358 51.7328 48.0349C52.2576 48.7117 52.6431 49.4859 52.867 50.3126C53.091 51.1393 53.1489 52.0022 53.0374 52.8514C52.9259 53.7006 52.6473 54.5193 52.2176 55.2602L38.7121 78.4232L48.8619 84.2183ZM29.0065 72.863L29.7426 72.6673L31.2054 70.1753L26.4893 71.4313L29.0065 72.863ZM22.7096 69.2612L33.3829 66.4287L34.9833 63.6818L19.7338 67.5695L22.7096 69.2612ZM15.9199 65.3796L37.1459 59.9651L39.226 56.3957L12.5784 63.4672L15.9199 65.3796ZM12.2937 60.3896L40.0946 53.0121L37.2521 51.3854L13.9419 57.5764L12.2937 60.3896ZM16.1166 53.8307L33.4719 49.2246L30.6312 47.599L17.7576 51.0133L16.1166 53.8307ZM19.9394 47.2717L26.851 45.4381L25.0143 44.3777L21.0102 45.4338L19.9394 47.2717Z" fill="url(#paint0_linear_888_1583)"/>
</g>
</g>
</g>
</g>
</g>
</g>
<defs>
<linearGradient id="paint0_linear_888_1583" x1="46.4194" y1="55.7062" x2="4.56226" y2="99.6609" gradientUnits="userSpaceOnUse">
<stop stop-color="#C7D33D"/>
<stop offset="1" stop-color="#EEFF2B"/>
</linearGradient>
</defs>
</svg>
