<svg width="100" height="100" viewBox="0 0 100 100" fill="none" xmlns="http://www.w3.org/2000/svg">
<g id="Group 41757">
<path id="Rectangle 9176" d="M80.5562 0H19.4461C8.70739 0 0.00195312 8.70557 0.00195312 19.4444V80.5555C0.00195312 91.2944 8.70739 100 19.4461 100H80.5562C91.2949 100 100 91.2944 100 80.5555V19.4444C100 8.70557 91.2949 0 80.5562 0Z" fill="#810D00"/>
<g id="Group 10857">
<g id="Clip path group">
<mask id="mask0_1220_3396" style="mask-type:luminance" maskUnits="userSpaceOnUse" x="0" y="0" width="100" height="100">
<g id="clip-path-6">
<path id="Rectangle 8976" d="M80.5542 0H19.4441C8.70543 0 0 8.70557 0 19.4444V80.5555C0 91.2944 8.70543 100 19.4441 100H80.5542C91.2929 100 99.9984 91.2944 99.9984 80.5555V19.4444C99.9984 8.70557 91.2929 0 80.5542 0Z" fill="white"/>
</g>
</mask>
<g mask="url(#mask0_1220_3396)">
<g id="Mask Group 301">
<path id="Union 425" d="M18.4772 110.948C17.2885 110.263 16.1854 109.439 15.1912 108.493C14.2291 107.576 13.377 106.551 12.6523 105.437C11.5831 103.79 10.802 101.972 10.3427 100.062C8.45935 100.618 6.49538 100.85 4.53442 100.748C3.20686 100.678 1.892 100.453 0.616432 100.079C-0.699591 99.6905 -1.96489 99.1474 -3.15295 98.4609C-5.10968 97.3374 -6.82586 95.8393 -8.20343 94.0523C-9.58101 92.2654 -10.593 90.2244 -11.1815 88.0462C-11.77 85.868 -11.9236 83.5951 -11.6334 81.3575C-11.3433 79.1199 -10.615 76.9614 -9.49035 75.0053C-11.1426 73.7994 -12.5922 72.338 -13.7847 70.6761C-16.446 66.9466 -17.7282 62.408 -17.4118 57.8372C-17.0953 53.2664 -15.1999 48.9478 -12.05 45.6206C-9.41091 42.8344 -6.01221 40.8839 -2.27519 40.0109C-2.94104 37.7953 -3.21414 35.4803 -3.08212 33.1706C-2.99444 31.6673 -2.73346 30.1792 -2.30435 28.7359C-1.1178 24.7412 1.29629 21.2216 4.59553 18.6761C8.58218 15.6161 13.5894 14.1991 18.5884 14.7164C20.7038 14.935 22.7685 15.5014 24.6994 16.3928C27.319 13.3823 30.9042 11.3767 34.8405 10.7199C38.7767 10.0631 42.8189 10.7959 46.274 12.7928C47.4628 13.48 48.5662 14.3052 49.5615 15.2511C51.9542 17.5385 53.637 20.4669 54.4086 23.6859C56.292 23.1305 58.256 22.8989 60.2169 23.0011C61.5445 23.0709 62.8594 23.2956 64.1348 23.6706C65.4515 24.0591 66.7173 24.6027 67.9056 25.29C71.8541 27.5603 74.7397 31.3054 75.9283 35.7023C77.1169 40.0992 76.5112 44.7881 74.2444 48.7386C77.9201 51.4356 80.5349 55.335 81.6346 59.7595C82.8806 64.7207 82.1432 69.9722 79.579 74.3984C78.8014 75.744 77.8692 76.9942 76.8013 78.1234C74.1583 80.9053 70.7605 82.855 67.0251 83.7331C68.176 87.5654 68.1361 91.6569 66.9107 95.4661C65.6853 99.2753 63.3321 102.623 60.1627 105.065C56.1745 108.123 51.1679 109.541 46.1685 109.028C44.0559 108.808 41.994 108.242 40.0658 107.351C37.4444 110.364 33.8564 112.37 29.9173 113.026C25.9782 113.682 21.9336 112.949 18.4772 110.948ZM19.4689 96.9817C19.6562 98.5001 20.2934 99.9278 21.2988 101.081C22.3041 102.234 23.6314 103.06 25.1101 103.453C26.5888 103.846 28.1511 103.787 29.5961 103.285C31.0412 102.782 32.3028 101.859 33.2187 100.633C34.3632 99.0865 36.0289 98.0063 37.9078 97.5923C39.7868 97.1782 41.7521 97.4581 43.4407 98.3803C45.7289 99.6318 48.418 99.9312 50.9253 99.2136C52.3041 98.8197 53.5844 98.1395 54.6825 97.2174C55.7807 96.2953 56.6721 95.152 57.2986 93.8621C57.925 92.5722 58.2725 91.1647 58.3182 89.7315C58.364 88.2982 58.107 86.8714 57.5641 85.5442C57.0992 84.4187 56.8991 83.2015 56.9793 81.9865C57.0594 80.7715 57.4176 79.5911 58.0262 78.5364C58.6349 77.4818 59.4777 76.5811 60.4896 75.9038C61.5016 75.2265 62.6556 74.7908 63.8626 74.6303C65.2821 74.4372 66.6451 73.9472 67.8626 73.1922C69.0801 72.4372 70.1249 71.4342 70.9289 70.2485C71.7329 69.0628 72.2781 67.7209 72.5289 66.3105C72.7797 64.9 72.7306 63.4525 72.3847 62.0622C71.7633 59.5399 70.1776 57.3618 67.9681 55.9956C66.2049 54.9084 64.9346 53.1769 64.4269 51.1686C63.9192 49.1603 64.214 47.0332 65.2487 45.2386L65.9612 44.0011C66.7601 42.6083 67.1016 40.9997 66.9375 39.4024C66.7734 37.8051 66.112 36.2996 65.0466 35.0982C63.9812 33.8968 62.5655 33.0603 60.9993 32.7064C59.4331 32.3526 57.7953 32.4994 56.3169 33.1261C55.6262 33.4178 54.8977 33.6104 54.1531 33.6984L47.5809 45.0872C46.9477 46.1837 45.9049 46.9836 44.6819 47.3112C43.4589 47.6387 42.1559 47.467 41.0595 46.8338C39.9631 46.2006 39.1632 45.1578 38.8356 43.9347C38.5081 42.7117 38.6798 41.4087 39.313 40.3122L45.8837 28.9234C45.5871 28.2328 45.3893 27.5039 45.2963 26.7581C45.1095 25.2394 44.4725 23.8114 43.4674 22.6578C42.4622 21.5041 41.1349 20.6776 39.6562 20.2846C38.1774 19.8916 36.6149 19.9501 35.1697 20.4525C33.7244 20.955 32.4626 21.8784 31.5465 23.1039C30.4025 24.6512 28.7369 25.732 26.8578 26.1464C24.9787 26.5608 23.0131 26.2807 21.3244 25.3581C19.0366 24.1056 16.3471 23.8061 13.8398 24.5247C12.4606 24.9188 11.18 25.5993 10.0815 26.5216C8.98304 27.444 8.09135 28.5877 7.46465 29.8779C6.83795 31.1682 6.4903 32.5761 6.4444 34.0097C6.39851 35.4434 6.65538 36.8707 7.19827 38.1984C7.66202 39.3239 7.86121 40.5409 7.78048 41.7555C7.69975 42.9702 7.34126 44.1501 6.73263 45.2043C6.12399 46.2586 5.28147 47.1591 4.26996 47.8363C3.25846 48.5136 2.10497 48.9497 0.898373 49.1109C-0.519987 49.305 -1.88161 49.7955 -3.09794 50.5505C-4.31427 51.3055 -5.35809 52.308 -6.1615 53.4929C-6.96492 54.6778 -7.50995 56.0185 -7.76116 57.4279C-8.01236 58.8373 -7.96411 60.2838 -7.61954 61.6734C-6.99827 64.1965 -5.41198 66.3753 -3.20156 67.7414C-1.43938 68.8296 -0.170116 70.5611 0.337252 72.5691C0.84462 74.5771 0.550224 76.7037 -0.483549 78.4984L-1.19743 79.7331C-2.00114 81.1257 -2.34665 82.7358 -2.1851 84.3356C-2.02355 85.9354 -1.36311 87.4439 -0.297207 88.6477C0.7687 89.8515 2.18612 90.6897 3.75455 91.0438C5.32298 91.3978 6.96302 91.2498 8.44269 90.6206C9.13527 90.3303 9.86499 90.1382 10.6107 90.0497L16.4523 79.9261C16.7659 79.3833 17.1834 78.9076 17.6808 78.5262C18.1783 78.1447 18.746 77.865 19.3516 77.7029C19.9571 77.5409 20.5887 77.4997 21.2102 77.5817C21.8317 77.6637 22.4309 77.8674 22.9737 78.181C23.5165 78.4946 23.9922 78.9121 24.3736 79.4095C24.7551 79.907 25.0348 80.4747 25.1969 81.0803C25.3589 81.6859 25.4001 82.3175 25.3181 82.939C25.2361 83.5605 25.0324 84.1597 24.7188 84.7025L18.8772 94.8247C19.1742 95.5126 19.3734 96.2386 19.4689 96.9817ZM21.705 71.7984L21.6883 71.7872C21.1449 71.4754 20.6687 71.0589 20.2873 70.5618C19.9059 70.0647 19.6268 69.497 19.4661 68.8914L16.7814 58.9539C16.4884 57.7432 16.6804 56.4659 17.3166 55.3949C17.9528 54.3239 18.9826 53.5442 20.186 53.2224C21.3894 52.9007 22.6709 53.0624 23.7567 53.673C24.8424 54.2835 25.6463 55.2946 25.9966 56.49L27.416 61.7678L46.3782 56.4984C46.9851 56.3187 47.6216 56.2616 48.2508 56.3303C48.88 56.399 49.4892 56.5921 50.043 56.8985C50.5968 57.205 51.0841 57.6185 51.4766 58.115C51.8691 58.6115 52.1589 59.1812 52.3291 59.7908C52.4993 60.4004 52.5466 61.0378 52.4681 61.6658C52.3897 62.2939 52.1871 62.9 51.8721 63.449C51.5572 63.998 51.1362 64.4789 50.6336 64.8636C50.131 65.2483 49.557 65.5293 48.9448 65.69L25.3438 72.2511C24.9301 72.3665 24.5025 72.4249 24.073 72.4247C23.2414 72.4258 22.4239 72.2104 21.7008 71.7997L21.705 71.7984Z" fill="url(#paint0_linear_1220_3396)"/>
</g>
</g>
</g>
</g>
</g>
<defs>
<linearGradient id="paint0_linear_1220_3396" x1="54.9127" y1="21.3795" x2="11.6873" y2="106.044" gradientUnits="userSpaceOnUse">
<stop stop-color="#FF3D27"/>
<stop offset="1" stop-color="#FC6B5C"/>
</linearGradient>
</defs>
</svg>
